<?xml version="1.0" encoding="UTF-8"?><svg xmlns="http://www.w3.org/2000/svg" xmlns:xlink="http://www.w3.org/1999/xlink" viewBox="0 0 1250.17 579.8"><defs><style>.e{fill:url(#d);}.f{fill:none;}.g{fill:#f0941b;}.h{fill:#f0ebe8;}.i{fill:#1d718b;}</style><pattern id="d" x="0" y="0" width="5.04" height="5.04" patternTransform="translate(2038.35 -537.14)" patternUnits="userSpaceOnUse" viewBox="0 0 5.04 5.04"><g><rect class="f" y="0" width="5.04" height="5.04"/><circle cx="3.78" cy="5.04" r=".8"/><circle cx="1.26" cy="5.04" r=".8"/><circle cx="5.04" cy="2.52" r=".8"/><circle cx="2.52" cy="2.52" r=".8"/><circle cx="0" cy="2.52" r=".8"/><circle cx="3.78" cy="0" r=".8"/><circle cx="1.26" cy="0" r=".8"/></g></pattern></defs><g id="a"/><g id="b"><g id="c"><g><polygon class="e" points="940.74 469.18 1085.07 354.43 1165.99 292.43 1213.68 257.96 1249.75 302.05 1250 579.77 1054.57 579.8 1008.51 526.51 990.84 526.89 943.5 471.05 940.74 469.18"/><path class="g" d="M1133.52,344.93l-.29,4.77s3.9,14.47,17.13,21.28,20.84,10.02,20.84,10.02l22.85-16.03,16.83-17.23-2.11-12.86-19.54-8.78-12.02-10.42-12.02,3.61-31.66,25.65Z"/><polygon class="h" points="1117.49 387.01 1122.94 381.39 1185.63 415.07 1201.26 401.44 1220.49 385.41 1235.32 385.41 1246.95 393.43 1249.81 395.13 1249.75 507.25 1195.11 494.58 1175.21 472.38 1177.73 450.46 1173.6 439.12 1145.55 412.67 1117.49 387.01"/><polyline class="h" points="982.02 463.17 1002.86 444.33 1050.16 401.04 1081.42 373.79 1128.31 432.71 1201.66 515.67 1216.49 536.11 1178.81 579.4 1068.59 579.8 1010.48 503.65 981.93 475.16 981.22 465.97"/><path d="M0,349.61c2.78-.97,5.5-2.24,8.35-2.85,5.91-1.26,11.89-2.22,17.85-3.2,7.37-1.21,14.78-2.24,22.15-3.49,4.08-.69,8.09-1.78,12.16-2.53,8.74-1.61,17.45-3.48,26.26-4.55,5.22-.64,8.71-3.83,12.6-6.49,4.89-3.34,9.49-7.1,14.39-10.8-4.59-7.28-9.31-14.76-14.09-22.34-4.2,.36-6.78-2.14-6.62-6.51,.2-5.54,5.77-10.11,10.82-11.1,1.11-.22,2.28-.17,3.13-.23,3.77-7.94,9.72-12.31,18.19-12.89,2.56-.18,3.87-1.06,5.3-3.34,4.78-7.64,13.22-11.81,22.55-10.49,2.18,.31,4.2,1.81,6.29,2.77,5.42-12.87,11.64-14.59,20.94-12.96,.64-1.57,1.15-3.28,1.99-4.8,3.24-5.8,11.8-8.74,18.08-6.34,3.65,1.39,6.52,3.79,9.23,6.86,2.7-.97,5.59-2.01,8.69-3.12,2.47,.8,4.24,2.55,5.99,4.97,8.5,11.78,16.55,23.92,26.34,34.74,2.3,2.55,4.16,5.5,6.55,7.96,4.24,4.36,8.64,8.58,13.13,12.68,4.59,4.19,9.46,8.07,14.05,12.27,1.41,1.29,2.3,3.17,3.23,4.51-.67,3.42-2.7,3.29-4.85,2.6-2.42,3.37-1.52,7.15-1.88,10.73-.16,1.62-.43,3.22-.63,4.84-.24,1.93-1.31,2.9-3.26,3.12-.96,.11-1.96,.48-2.8,.96-14.94,8.46-29.86,16.95-44.78,25.45-.7,.4-1.29,.99-2.19,1.69,.47,1.1,.99,2.09,1.34,3.14,1.5,4.64-.95,8.36-5.83,8.76-2.4,.2-4.84,.23-7.23,.18-1.6-.03-2.47,.31-3.04,1.72-.37,.92-.81,1.81-1.18,2.72-2.41,5.87-7.19,7.08-12.87,6.56-.5-.05-1,0-1.74,0-1.3,3.41-3.02,6.56-6.16,9-2.4,1.87-5.06,2.25-7.74,2.7-2.04,.34-4.21-.14-6.29,.1-8.26,.98-16.03-1.65-23.91-3.25-10.15-2.06-20.23-4.49-30.35-6.69-7.85-1.71-15.73-3.3-24.11-5.05,.27,2.29,.31,4.37,.78,6.35,.99,4.2-.33,8.1-1.4,12.01-.39,1.42-3.58,2.06-5.28,1.26-.72-.34-1.3-.97-1.76-1.32-3.62,.12-5.26,3.45-8.62,4.09-3.08,.59-5.72,3.17-8.72,4.5-4.95,2.19-9.99,4.17-15.06,6.05-6.5,2.4-13.04,4.73-19.63,6.87-7.67,2.49-15.4,4.77-23.12,7.09-3.62,1.09-7.28,2.09-10.93,3.08-1.42,.38-2.88,.61-4.33,.91v-3.99c3.95-1.62,7.84-3.4,11.85-4.83,12.63-4.5,25.3-8.86,37.95-13.31,4.31-1.52,8.6-3.12,12.9-4.69-.68-1.92-1.52-3.39-1.71-4.95-.8-6.83-1.61-13.67-2.03-20.53-.49-8.01,.06-16.07-1.06-24.06-.29-2.06-.04-4.2-.04-6.55-1.88,.17-3.18,.22-4.47,.41-5.82,.87-11.63,1.79-17.46,2.65-4.07,.61-8.16,1.11-12.24,1.74-5.71,.87-11.41,1.77-17.1,2.74-2.22,.38-4.41,.98-6.61,1.49v-4.99Zm149.46-26.69l.15,.69c2.32,0,4.71-.34,6.95,.09,2.73,.52,4.38-1.6,6.67-2.02,3.89-.71,7.79-1.45,11.67-2.2,8.87-1.72,17.8-3.2,26.56-5.33,3.09-.75,5.17,.18,7.3,1.69,3.57,2.53,5.89,6.09,7.68,10.04,.72,1.59,1.64,3.1,2.46,4.64,1.24-.58,2.05-.84,2.72-1.3,7.87-5.38,16.81-8.42,25.75-11.32,8.87-2.88,17.93-5.16,26.88-7.8,1.63-.48,3.61-.66,4.53-2.87-3.46-2.77-6.71-5.89-10.46-8.21-3.55-2.2-6.49-4.99-9.32-7.88-5.83-5.93-11.51-12.01-16.19-18.97-4.53-6.72-9.38-13.22-14.02-19.86-3.08-4.42-6.16-8.84-8.53-13.72-.53-1.08-1.62-1.89-2.41-2.77-1.17,.76-1.95,1.64-2.84,1.77-3.14,.48-4.25,2.45-4.99,5.27-.53,2-1.84,3.81-2.88,5.66-.97,1.72-2.35,1.42-4.1,.58,.12-1.13,.11-2.27,.4-3.31,.33-1.18,.95-2.28,1.79-4.22-5.55,2.62-10.24,4.88-14.99,7.03-1.39,.63-1.88,1.64-2.28,3-.45,1.54-.99,3.17-1.94,4.43-1.34,1.78-3.13,1.48-4.39-.52-.31-.49-.24-1.23-.35-1.92-3.65,1.71-7.19,2.85-10.09,4.88-2.84,1.99-6.81,3.05-7.71,7.22-.05,.24-.5,.39-.82,.62-1-.45-2.03-.91-2.97-1.33-6.18,2.95-12.26,5.86-18.53,8.85-.07,.54-.06,1.4-.32,2.17-.83,2.45-1.17,2.49-4.14,1.25-.69-.29-1.7-.47-2.3-.17-4.58,2.31-9.08,4.75-13.62,7.14-1.51,.79-2.48,1.76-3.13,3.54-1.21,3.3-2.46,3.26-5.17,.24-2.45,1.1-4.94,2.22-7.63,3.43,4.6,7.12,9.04,14,13.58,21.03,3.15-1.79,6.25-3.56,9.58-5.45-2.62-2.62-5.07-5.05-7.5-7.51-1.89-1.9-2.06-2.84-.8-5.2,1.44-2.68,3.41-4.86,6.28-6.07,3.8-1.59,7.76-2.87,11.37-4.81,2.53-1.35,5.21-1.86,7.85-2.62,.83-.24,1.93,.46,3.93,1.02-2.11,1.82-3.3,3.17-4.78,4.04-1.97,1.16-4.19,1.87-6.25,2.88-4.71,2.31-9.38,4.68-14.11,7.04,3.49,3.64,6.63,6.91,10.14,10.57,6.99-2.09,14.34-4.29,22.01-6.59-2.95-5.08-5.59-9.61-8.2-14.09,2.67-2.45,3.83-2.47,5.45,.15,1.63,2.65,2.97,5.47,4.44,8.22,.83,1.55,1.66,3.1,2.57,4.81,4.46-2.37,8.8-3.29,13.28-3.51,.88-.04,2.31,.11,2.59,.64,1.47,2.86,3.82,5.52,2.65,9.18-1.04,3.25-2.65,6.23-5.58,7.99-2.95,1.77-6.18,3.11-9.4,4.39-4.79,1.9-9.68,3.57-14.52,5.33Zm25.46-21.55c-2-1.21-3.63-.37-5.39,.13-7.6,2.17-15.25,4.12-22.85,6.27-5.55,1.56-11.05,3.28-16.56,4.98-.93,.29-1.86,.74-2.66,1.3-9.36,6.53-18.7,13.09-28.06,19.63-.67,.47-1.4,.84-2.14,1.19-4.65,2.2-5.08,3.02-4.32,8.32,.1,.66,.16,1.32,.27,1.97,1.2,7.09,2.65,14.15,3.48,21.29,.27,2.33,.4,4.65,.8,6.85,8.31,1.27,16.48,1.2,24.36,3.36,1.75,.48,3.5,1.15,5.28,1.3,9.14,.73,18.06,2.7,27.02,4.54,4.51,.93,9.13,1.3,13.64,2.24,6.1,1.27,11.97,.38,17.91-.97,2.28-.52,3.38-1.69,3.84-4.13-2.14-.65-4.29-1.53-6.53-1.94-6.49-1.18-13.02-2.11-19.52-3.24-2.75-.48-5.48-1.12-8.18-1.84-3.03-.81-3.22-1.54-1.62-4.87,2.27,.27,4.53,.58,6.81,.8,4.12,.39,8.27,.51,12.35,1.14,7.76,1.21,15.49,2.69,23.22,4.09,5.84,1.06,6.45,.8,9.87-4.75-2.78-.67-5.45-1.35-8.14-1.94-8.34-1.84-16.7-3.6-25.02-5.51-2.55-.58-5.12-1.32-7.49-2.41-.91-.42-1.87-2.09-1.77-3.08,.19-1.79,2.28-1.15,3.19-1.04,4.06,.48,8.07,1.42,12.11,2.14,10.53,1.87,20.94,4.51,31.61,5.53,3.75,.36,7.55,1.58,11.44,.12-.17-3-2.51-4.28-4.32-5.85-2.35-2.05-4.66-4.47-7.45-5.61-2.78-1.14-6.13-.88-9.23-1.29-7.82-1.04-15.48-3-23.38-3.67-4.22-.35-8.38-1.65-12.52-2.73-1.09-.28-1.99-1.3-3.2-2.13,3.43-2.06,3.47-2,5.5-1.7,4.07,.61,8.14,1.17,12.22,1.68,6.71,.85,13.4,1.82,20.13,2.43,4.78,.43,9.6,.38,14.4,.45,.54,0,1.09-.57,1.66-.89-.88-2.91-6.16-1.34-5.1-5.87-10.71-2.01-21.33-4.11-31.99-5.98-5.37-.94-10.8-1.46-16.21-2.16-7.27-.94-14.55-1.84-21.81-2.85-1.94-.27-2.81-2.68-1.45-4.1,1.11-1.17,2.46-2.27,3.91-2.95,3.87-1.81,7.92-3.25,11.79-5.05,4.93-2.29,10.51-2.67,15.22-5.74,2.93-1.91,4.22-4.32,4.85-7.47Zm-83.13,89.03c-1.21-17.02-3.35-34.24-4.31-51.44-8.37,1.8-16.33,3.51-24.29,5.22,0,1.5-.33,2.92,.06,4.1,1.71,5.29,1.9,10.71,1.85,16.19,0,.83,.02,1.66,.12,2.48,.59,5.19,1.26,10.37,1.79,15.56,.47,4.59,.73,9.19,1.23,13.77,.11,1.05,.79,2.05,1.25,3.17,5.76-2.74,11.22-5.41,16.76-7.91,1.37-.62,3-.65,5.54-1.15Zm132.65-37.95c16.9-9.84,33.71-19.13,51.26-27.61-.37-.96-.76-1.95-1.11-2.86-4.59,2.09-9.15,3.72-13.26,6.12-11.85,6.91-24.51,12.07-37,17.6-1.83,.81-3.41,2.19-5.52,3.58,2.21,1.25,3.78,2.13,5.64,3.18Zm50.99-36.34l-.12-.48c-.75,.14-1.56,.13-2.24,.43-7.98,3.5-16.4,5.72-24.67,8.38-8.3,2.67-16.29,6.07-23.87,10.38-1.27,.72-2.52,1.63-3.5,2.7-1.31,1.44-1.38,2.95,.53,3.82,18.05-8.45,35.96-16.84,53.86-25.23Zm-64.98,15.57c-1.37-2.8-2.26-4.7-3.22-6.56-2.18-4.21-3.66-5.02-8.33-4.37-7.33,1.02-14.66,2.09-21.98,3.2-.58,.09-1.09,.62-1.46,.83,11.31,2.23,22.61,4.46,34.99,6.9Zm-74.77-69.6c1.78,2.05,3.04,3.49,4.29,4.92,5.46-2.6,11.27-5.37,17.15-8.18-3.66-4.9-4.09-4.29-8.01-4.02-5.79,.39-10.49,3.14-13.44,7.28Zm49.44-20.18c.58,1.61,1.5,1.97,3.07,1.26,4.27-1.91,8.58-3.7,12.88-5.55,.45-.19,.88-.42,1.33-.64-1.86-3.78-4.82-3.01-7.47-3.14-5.75-.27-7.6,4.1-9.81,8.06Zm-71.77,35.29c1.51,1.47,3.02,1.47,4.81,.33,1.77-1.13,3.76-1.93,5.65-2.87,2.94-1.47,5.88-2.94,9.09-4.53-6.24-2.85-14.94,.46-19.55,7.08Zm52.38-22.86c5.42-2.73,9.86-4.96,14.54-7.32-2.25-3.32-5.14-2.44-7.3-1.62-3.43,1.3-6.33,3.6-7.23,8.94Zm-57.88,27.61c-5.22,.82-5.8,1.2-7.35,4.73,2.45-1.58,4.69-3.02,7.35-4.73Z"/><path d="M115.97,0c-3.85,8.18-5.61,16.5-4.36,25.75,.89,6.57,2.09,12.87,4.77,18.88,2.86,6.41,6.94,12.08,12.02,16.81,9.23,8.61,20.49,13.53,32.68,16.36,10.2,2.37,20.58,3.43,31.03,2.95,6.94-.32,13.9-.94,20.75-2.07,7.15-1.18,14.23-2.94,21.24-4.81,7.65-2.05,14.91-5.2,21.85-9.04,.99-.55,1.82-1.37,2.99-2.27-1.04-1.23-1.88-2.37-2.88-3.36-3.43-3.42-4.73-7.95-5.81-12.36-.63-2.58,0-5.6,.59-8.31,1.43-6.54,4.21-12.43,9.39-16.96,2.8-2.44,5.96-4.22,9.65-4.73,7.31-1,13.74,1,18.8,6.44,3.49,3.75,3.86,8.27,1.99,12.91-2.51,6.24-6.71,11.39-11.24,16.22-3.13,3.34-6.73,6.24-10.4,9.61,2.34,2.52,5.44,4.4,8.72,5.59,14.28,5.16,28.96,7.74,44.26,7.36,19.47-.48,38.35-4.14,57.03-9.19,3.47-.94,6.91-2,10.34-3.08,3.11-.97,5.55-2.67,7.17-5.69,1.79-3.33,4.11-6.37,6.03-9.64,1.05-1.79,2.42-2.29,4.42-2.57,8.38-1.17,16.79-.77,25.19-.84,6.11-.05,12.22,.3,18.33,.47,7.13,.2,14.27,.36,21.4,.6,7.32,.25,14.63,.56,21.94,.9,.8,.04,1.57,.44,2.37,.63,2.5,.58,4.83,1.7,7.52,1.78,1.91,.06,4.14,.51,4.67,3.2,.36,2.16-1.48,3.36-2.89,4.55-2.45,2.06-5.07,4.02-7.86,5.57-3.59,2-7.38,3.69-11.18,5.27-5.58,2.33-11.26,4.43-16.89,6.65-11.78,4.63-23.51,9.39-35.35,13.85-3.04,1.15-6.46,1.27-9.65,2.06-6.7,1.65-13.35,3.47-20.04,5.14-1.27,.31-2.64,.34-3.96,.28-3.59-.16-5.2-2.54-4.05-6.07,.65-2,1.57-3.92,2.59-6.43-3.8,1.29-7.04,2.72-10.42,3.43-3.26,.68-5.59,4.37-10.06,2.27-.03-.42-.54-1.68-.12-2.39,3.33-5.58,6.84-11.06,10.28-16.58,.32-.52,.49-1.13,.93-2.18-7.06,1.96-13.6,4-20.24,5.58-11.36,2.71-22.67,5.55-34.42,6.52-8.89,.73-17.77,1.26-26.61,.7-12.39-.79-24.58-3.05-35.84-8.73-3.05-1.54-5.98-3.3-9.23-5.11-1.56,.82-3.35,1.64-5.02,2.67-10.97,6.75-23.07,10.51-35.52,13.14-7.19,1.52-14.51,2.43-21.81,3.42-10.61,1.44-21.07,.49-31.52-.45-5.25-.47-10.54-1.83-15.75-3.44-5.26-1.62-10.26-3.54-15.08-6.06-9.13-4.78-16.68-11.47-22.49-19.9-4.31-6.27-7.33-13.25-8.44-20.91-.55-3.82-1.41-7.6-1.75-11.43-.52-5.84,.91-11.47,2.59-17.01,.62-2.04,1.55-3.99,2.33-5.97h5Zm148.69,58.93c8.05-5.52,14.93-12.3,20.02-20.7,1.38-2.28,1.71-5.25,2.25-7.96,.42-2.11-.54-3.88-2.3-5.14-7.95-5.66-16.61-5.75-23.52,2.63-2.74,3.32-3.88,7.17-5,11.1-2.25,7.89,1.03,15.62,8.56,20.06Zm137.41,29.78c29.36-6.53,56.42-17.89,84.31-29.36-1.35-.22-1.85-.44-2.3-.36-9.06,1.81-18.21,3.29-27.15,5.58-9.56,2.44-19.05,5.31-28.33,8.64-6.95,2.5-14.14,4.04-21.12,6.34-.37,.12-.86-.1-1.34-.17-1.3,3-2.55,5.86-4.06,9.33Zm-2.91-24.99c-1.95,4.85-6.17,9.11-8.5,15.36,19.78-6.37,38.73-12.47,57.97-18.66-16.6,1.11-32.82,2.19-49.48,3.3Zm70.15-12.63c-8.68-.16-17.36-.28-26.04-.49-6.76-.17-13.51-.44-20.26-.72-3.17-.13-6.33-.56-9.49-.59-4.09-.04-7.93,.52-8.98,5.58-.22,1.07-.98,2.03-1.62,3.3,22.45-.91,44.33-4.33,66.4-7.07Z"/><path class="e" d="M0,354.61c2.2-.5,4.39-1.11,6.61-1.49,5.69-.97,11.39-1.87,17.1-2.74,4.07-.62,8.16-1.13,12.24-1.74,5.82-.87,11.63-1.79,17.46-2.65,1.28-.19,2.59-.24,4.47-.41,0,2.36-.24,4.49,.04,6.55,1.12,8,.57,16.05,1.06,24.06,.42,6.86,1.23,13.7,2.03,20.53,.18,1.56,1.02,3.03,1.71,4.95-4.3,1.57-8.59,3.17-12.9,4.69-12.65,4.44-25.32,8.8-37.95,13.31C7.84,421.11,3.95,422.89,0,424.51c0-23.3,0-46.6,0-69.9Z"/><path d="M943.5,471.05c16.63,17.68,32.79,34.85,49.16,52.25,5.91-.97,12.1-2.04,18.92-.05,14.99,17.94,30.53,36.55,46.09,55.17-5,1.93-6.91,1.51-10.16-2.35-6.05-7.19-12.29-14.24-18.04-21.66-5.64-7.28-11.82-14.15-17.06-21.74-1.31-1.89-2.47-3.89-3.9-6.16-5.9,1.47-11.87,2.95-18.55,4.6-1.4-1.48-3.37-3.44-5.19-5.52-5.75-6.58-11.57-13.11-17.15-19.83-5.92-7.12-13.05-13.17-18.28-20.92-1.65-2.44-4.13-4.32-6.22-6.46-2.34-2.4-4.34-4.98-4.85-8.66,.7-.74,1.41-1.68,2.29-2.4,8.74-7.2,17.54-14.33,26.26-21.55,8.79-7.28,17.45-14.72,26.26-21.97,8.42-6.94,16.99-13.71,25.44-20.63,3.43-2.81,6.49-6.13,10.13-8.63,8.31-5.72,15.61-12.68,23.66-18.72,6.35-4.77,12.41-9.92,18.62-14.88,2.83-2.26,5.74-4.43,8.55-6.72,.6-.49,.91-1.33,1.4-1.97,.47-.62,.91-1.6,1.51-1.72,5.19-1.04,8.16-5.37,12.09-8.18,8.73-6.27,17.07-13.09,25.59-19.66,9.01-6.95,17.97-13.97,27.09-20.78,9.25-6.91,18.67-13.58,28-20.39,4.81-3.51,9.55-7.1,14.38-10.58,6.95-5.01,13.92-9.99,20.96-14.88,2.74-1.9,3.91-1.93,6.5,.64,2.89,2.86,5.39,6.12,7.9,9.34,6.16,7.88,12.24,15.83,18.35,23.75,1.39,1.8,2.72,3.67,4.2,5.39,3.43,3.99,2.38,8.55,2,13.93-12.97-15.68-25.05-30.99-34.93-48.26-4.55,1.64-8.1,5.2-12.15,7.92-4.77,3.21-9.19,6.94-13.82,10.37-5.54,4.11-11.18,8.11-16.71,12.23-4.86,3.62-9.66,7.33-14.46,11.02-5.64,4.34-11.24,8.72-16.89,13.05-5.92,4.54-11.9,9-17.8,13.57-9.57,7.41-19.1,14.86-28.63,22.31-1.41,1.1-2.74,2.3-4.41,3.7,1.66,2.21,3.08,4.42,4.82,6.34,6.74,7.46,11.72,16.39,19.18,23.48,1-1.71,1.72-3.12,2.6-4.42,2.57-3.8,5.85-5.02,10.07-3.92,3.54,.93,6.9,2.27,9.88,4.41,9.01,6.45,18.87,11.47,28.39,17.07,5.55,3.27,10.88,6.92,16.34,10.35,4.6,2.88,4.92,2.93,9.06-.67,4.34-3.77,8.5-7.74,13.1-11.95-3.25-3.56-6.41-6.73-9.22-10.19-2.79-3.43-5.22-7.16-8.04-11.09-3.14,2.82-5.75,5.43-8.66,7.66-1.21,.93-3.04,1.47-4.58,1.45-7.32-.1-14.03-2.62-19.87-6.75-8-5.67-14.73-12.8-20.86-20.45-.83-1.03-1.52-2.18-2.18-3.33-1.38-2.41-1.34-2.53,.66-5.95,1,.89,2.2,1.61,2.93,2.65,5.39,7.76,12.62,13.76,19.57,19.94,4.42,3.93,10.04,6.37,15.93,7.7,2.82,.64,5.3,.4,7.55-2.13,3.6-4.03,7.22-8.14,11.97-10.95,.27-.16,.56-.43,.68-.71,1.94-4.7,3.8-9.44,5.81-14.12,.78-1.83,.05-3.52-.07-5.27-.4-5.71,.02-6.28,5.99-7.06-3.63-1.86-6.97-3.48-10.22-5.27-3.25-1.79-6.3-3.91-9.16-6.3-2.76-2.31-5.04-5.05-7.26-8.35-5.52,4.02-10.72,7.71-15.82,11.53-5.68,4.26-11.26,8.65-16.9,12.95-1.71,1.3-3.41,2.62-5.21,3.78-2.35,1.5-3.81,1.48-4.91,.18-1.08-1.27-.54-2.69,1.64-4.53,2.27-1.91,4.46-3.9,6.77-5.76,5.28-4.24,10.59-8.44,15.92-12.6,4.65-3.62,9.43-7.08,14.02-10.78,3.68-2.96,7.07-2.97,10.43,.31,2.84,2.77,5.68,5.55,8.58,8.39,6.51-2.99,11.17-7.93,16.28-12.29,3.01-2.56,6.13-5,9.29-7.36,1.03-.77,2.33-1.24,3.56-1.7,4.55-1.69,6.9-1.15,9.85,2.72,4.48,5.88,8.77,11.91,13.14,17.87,2.61,3.56,5.26,7.09,7.8,10.69,.62,.87,1.22,1.98,1.26,3,.15,3.8,.06,7.61,.06,11.51-2.08,.71-3.91,1.34-5.87,2.01-.15,3.35-.29,6.66-.46,10.42,2.2-1.18,3.87-2.08,5.81-3.12,.22,.89,.41,1.48,.51,2.07,.85,4.81-1.01,7.78-5.3,10.43-5.55,3.43-10.4,7.98-16.05,12.43,6.41-.1,10.86,3.08,15.74,5.49,4.66,2.3,6.46,5.35,5.64,10.27-.16,.96-.17,1.95-.28,3.41-4.63-4.41-9.61-7.5-14.91-10.22-4.02-2.07-7.56-1.87-11.22,.47-1.08,.69-2.22,1.27-3.75,2.13,2.94,1.35,7.03-.99,8.1,3.37-.99,1.73-2.45,2.26-4.22,2.25-1.66-.01-3.37,.26-4.98-.02-5.65-.99-9.49,1.7-13.2,6.36,2.49,.59,4.61,1.2,6.77,1.57,3.46,.59,3.47,.51,3.22,4.48-2.59,1.62-5.35,1.02-8.07,.45-1.28-.27-2.48-.86-3.75-1.23-2.7-.79-4.99-.41-7.04,1.83-1.42,1.55-3.35,2.65-5.32,4.15,1.84,.85,3.56,1.64,5.28,2.43,.3,.14,.72,.18,.87,.41,.72,1.13,2.31,1.74,1.5,3.73-.75,1.86-1.99,2.29-3.5,1.79-3.27-1.09-6.57-2.21-9.65-3.74-4.12-2.04-8.15-4.31-12.03-6.78-9.98-6.34-20.72-11.38-30.44-18.14-3.45-2.4-6.84-4.9-10.41-7.11-3.15-1.94-6.51-3.54-9.87-5.35-1.22,1.03-2.2,1.85-3.21,2.7,.3,.64,.4,1.16,.71,1.48,4.81,4.92,9.84,9.65,14.45,14.75,6.11,6.76,13.2,12.35,20.26,18,5.13,4.11,10.34,8.13,15.54,12.15,3.18,2.46,5.71,5.38,7.82,8.85,3.01,4.94,6.59,9.52,9.76,14.36,2.96,4.53,5.63,9.26,8.57,13.81,1.6,2.48,3.47,4.77,5.52,7.56-.43,.59-.97,2.06-1.69,2.16-1.35,.18-3.14-.02-4.14-.82-1.91-1.54-3.63-3.45-4.99-5.49-4.31-6.47-8.41-13.07-12.61-19.6-.16-.24-.51-.36-1.21-.83-.16,1.03-.35,1.84-.41,2.66-.21,2.98-.21,5.98-.6,8.93-.68,5.07,1.74,8.75,4.65,12.54,7.35,9.55,17.4,14.65,28.55,18.15,5.59,1.75,11.07,3.86,16.7,5.43,5.85,1.63,11.84,2.76,17.75,4.21,1.75,.43,3.41,1.19,5.22,1.84v5.58c-11.99-2.66-23.77-5.28-35.42-7.87,9.72,9.83,19.54,19.76,29.4,29.73,1.57-1.22,3.49-2.72,5.95-4.64v11.34c-10.26,8.56-20.49,17.14-30.77,25.66-5.78,4.79-11.63,9.5-17.46,14.23-.5,.41-1.08,.99-1.64,1.01-2.58,.09-5.21,.52-8.39-.54,16.28-14.52,32.17-28.7,48.29-43.08-10.22-10.47-20.33-20.83-30.44-31.2-.58-.59-1.43-1.16-1.6-1.87-.88-3.69-4.14-4.35-6.9-5.64-1.8-.84-3.64-1.57-5.47-2.33-9.52-3.96-15.91-11.52-21.93-19.38-2-2.61-2.92-6-2.54-9.43,.3-2.72-.65-4.69-2.66-6.52-6.61-6.02-11.89-13.19-17.46-20.12-2.36-2.93-5.25-5.43-7.82-8.19-1.69-1.82-3.25-3.75-4.84-5.66-8.24-9.9-16.7-19.62-24.64-29.75-9.06-11.56-17.65-23.49-26.45-35.25-.39-.53-.91-.96-1.58-1.67-1.08,.7-2.2,1.31-3.19,2.09-11.07,8.76-22.15,17.51-33.16,26.35-9.04,7.25-17.97,14.64-26.97,21.92-10.52,8.51-21.03,17.05-31.65,25.44-5.79,4.57-12.09,8.51-17.63,13.35-6.97,6.07-14.25,11.71-21.52,17.39-2.46,1.92-4.92,3.84-7.56,5.91Zm258.26-108.51c-4.14,2.84-8.29,5.66-11.94,8.76,2.93,3.41,5.39,6.67,8.28,9.51,2.85,2.79,5.21,6.28,9.11,7.79,8.78-9.54,18.64-17.44,28.54-24.95,.25-1.89,.09-3.79,.78-5.31,1.83-4.06,2.21-7.96,.45-12.16-1-2.38-.32-3.5,2.17-4.65,1.32-.61,2.78-.94,4.18-1.37,1.01-.31,2.03-.57,3.06-.87-4.4-6.13-8.65-11.98-12.83-17.9-4.12-5.83-8.15-11.73-12.24-17.61-4.71,3.04-8.8,5.95-12.55,9.54-4.36,4.18-9.68,7.36-14.47,10.89,4.24,2.19,8.61,4.45,12.92,6.68,.67-.63,1.61-1.33,2.34-2.2,6.88-8.26,17.52-5.23,21.86,1.7,4.6,7.34,4.02,15.42-4.7,21.51-2.38,1.67-4.87,3.37-7.92,3.7-1.47,.16-2.72-.42-3.04-1.93-.31-1.48,.48-2.46,1.97-2.99,1.84-.65,3.85-1.17,5.38-2.31,4.92-3.64,7.29-8.75,3.68-14.64-2.36-3.85-6.96-5.4-10.97-3.38-2.44,1.23-4.64,2.94-7.07,4.52,4.88,2.66,4.68,7.9,6.9,11.76,.23,.4-.14,1.3-.46,1.83-.84,1.39-1.63,2.89-2.77,4.01-3.51,3.47-7.18,6.79-10.79,10.17l.1-.11Zm-31.78,90.22c.43-.22,.87-.44,1.3-.66,.3-3.37,.3-6.66-.19-10.13-.46-3.31-1.61-5.44-4.44-7.03-2.29-1.29-4.49-2.78-6.54-4.42-7.35-5.86-14.62-11.82-21.94-17.71-.18-.15-.59-.02-1.19-.02,.29,.62,.44,1.2,.78,1.61,9.4,11.54,20.35,21.79,28.79,34.15,1.02,1.49,2.28,2.81,3.42,4.21Zm30.69-108.53c0,1.69,.11,3.33-.03,4.95-.13,1.58-.52,3.14-.89,5.31,3.28-3.13,5.99-5.71,8.6-8.21-.83-1.23-1.56-2.3-2.29-3.39-1.7,.42-3.38,.84-5.39,1.33Z"/><path d="M1157.03,121.56c4.01-1.02,8.09-.7,12.22-.43,3.45,.23,6.83,.36,9.57,2.72,1.36,1.17,2.92,2.38,3.69,3.92,3.04,6.05,4.88,12.49,4.62,19.33-.32,8.46-.66,16.91-2,25.3-.79,4.94-1.11,10-1.1,15,0,9.35-5.64,13.43-12.49,14.29-1.31,.17-2.65,.18-4.44,.3-.13,2.76-.34,5.52-.35,8.27-.02,3.79-.87,6.52-5.19,7.87-3.02,.94-5.53,3.51-8.33,5.24-1.7,1.05-3.44,1.15-5.59,1-3.27-.22-6.64,.9-9.95,1.58-5.61,1.15-11.16,3.11-16.8,3.41-7.63,.41-15.36-.19-22.89-1.92-3.51-.81-7.01-1.49-10.41-2.95-6.21-2.67-10.31-7.11-13.07-13.1-3.14-6.81-3.27-14.15-3.78-21.38-.64-9.08-.98-18.19-1.11-27.29-.14-10.04-.39-20.09,2.99-29.84,1.56-4.49,3.99-8.31,7.06-11.82,.21-.25,.34-.62,.6-.77,4.88-2.75,9.66-5.71,14.71-8.11,3.23-1.54,6.89-2.14,10.3-3.33,7.23-2.51,14.62-2.37,22.06-1.5,.47,.06,.98,.25,1.41,.14,5.81-1.53,10.52,.76,15.19,3.89,3.25,2.18,6.72,4,9.52,6.79,1.15,1.14,2.34,2.23,3.54,3.37Zm-79.94,16.51c-.31,3.21-.69,5.83-.78,8.47-.18,5.04-.7,10.13-.17,15.11,.94,8.7,1.64,17.39,1.7,26.13,.06,8.15,1.31,16.03,4.97,23.42,1.72,3.48,4.33,5.79,8.15,6.65,4.48,1.01,8.72,2.78,13.37,3.32,5.47,.64,10.89,1.14,16.37,.61,3.94-.39,7.9-.8,11.8-1.45,3.97-.67,7.85-2.06,11.82-2.35,3.09-.22,5.34-1.57,7.54-3.27,2.22-1.72,4.3-3.56,7.33-3.03,.21-.88,.4-1.34,.42-1.82,.28-10.24,.52-20.49,.83-30.73,.14-4.59,.46-9.17,.57-13.75,.12-4.93,.14-9.85,.11-14.78,0-.78-.47-1.55-.84-2.71-.89,1.28-1.41,2.13-2.02,2.91-3.4,4.33-7.46,7.91-12.58,10.01-4.27,1.75-8.61,3.41-13.07,4.57-5.82,1.52-11.73,1.99-17.8,.69-6.51-1.4-12.53-4.03-18.63-6.47-6.95-2.77-12.21-7.68-16.09-13.98-1.27-2.07-1.85-4.56-3-7.54Zm83.15-12.56c1.46,4.07,2.61,7.43,3.89,10.73,.56,1.44,.57,3.34,2.76,3.65,4.81,.7,6.4,4.28,6.86,8.38,.7,6.33,1.31,12.7,1.41,19.06,.07,4.39-.72,8.8-1.23,13.19-.44,3.73-2.43,6.02-6.35,6.36-.47,.04-.92,.29-1.44,.46v7.42c.95-.1,1.74-.16,2.52-.28,5.05-.79,6.75-2.72,6.93-7.76,.04-1.15,.14-2.31,.3-3.46,.88-6.46,2.46-12.91,2.48-19.37,.02-6.15,1.37-12.09,1.52-18.18,.13-5.35-.75-10.3-3.21-15.05-1.07-2.07-2.45-3.45-4.84-3.73-3.73-.44-7.46-.92-11.61-1.44Zm-76.17,11.56c1.32-1.79,2.35-2.88,3.03-4.16,2.07-3.87,5.42-6.28,9.26-7.94,6.2-2.68,12.55-4.71,19.42-5.38,5.6-.54,10.97-.33,16.28,1.25,2.51,.75,4.81,2.34,7.35,2.81,2.55,.47,4.62,1.39,6.66,2.92,1.47,1.11,2.96,2.79,5.63,1.85-1.22-1.6-2.17-3.15-3.42-4.39-1.64-1.62-3.61-2.9-5.28-4.49-5.02-4.78-11.34-6.67-17.89-7.49-11.43-1.44-21.86,2.23-31.52,7.84-6.06,3.52-9.47,9.12-9.53,17.17Zm84.17,27.23l-1.05-.06v13.06c.64-4.32,2.03-8.6,1.05-13Zm-1.6-19.62c.22,4.12,.37,7.06,.52,10l1.14-.07c.64-3.02,.68-6.01-1.66-9.93Zm1.25,17.7h.46v-5.06h-.46v5.06Z"/><path d="M90.29,536.73c-2.95-.45-5.85-.92-8.77-1.32-2.96-.41-5.11-2.23-7.19-4.11-4.56-4.14-7.48-9.49-10.21-14.86-3.41-6.69-4.14-13.78-3.69-21.35,.43-7.09,2.71-13.1,6.21-19.03,2.27-3.85,5.27-6.8,9.19-8.7,1.85-.89,4.11-.93,6.76-1.47,.32-.59,1.03-1.68,1.51-2.87,2.11-5.25,6.13-8.83,10.56-11.99,8.44-6.03,18.22-8.64,28.25-10.24,3.17-.51,6.61,.15,9.86,.69,6.48,1.07,13.2,1.28,19.32,3.9,9.47,4.05,17.42,9.99,21.69,19.76,.83,1.91,1.17,4.17,1.18,6.27,.02,3.46-.69,6.94-.61,10.39,.13,5.55,.38,11.13,1.07,16.64,.78,6.33,.79,12.45-1.04,18.67-1.09,3.69-1.16,7.74-1.33,11.64-.19,4.33-1.01,8.43-2.96,12.31-3.34,6.63-10.84,12.95-18.33,14.75-6.95,1.67-13.87,3.24-20.98,3.95-.76,.08-1.55-.07-2.32-.19-7.48-1.12-14.46-3.93-21.41-6.7-7.64-3.05-13.69-7.96-16.76-16.15Zm76.75-46.31c-10.14,10.84-22.57,17.25-37.45,17.97-15.03,.72-28.46-3.43-39.36-15.04-.09,1.25-.24,1.92-.16,2.55,.46,3.85,.93,7.7,1.49,11.54,.38,2.61,1.29,5.2,1.26,7.8-.05,6.26,2.05,12.01,3.6,17.91,1.22,4.65,4.24,7.74,8.23,10.05,5.43,3.14,11.36,5.11,17.27,7.11,4.5,1.53,9.03,2.07,13.72,1.03,1.92-.42,3.87-.99,5.81-1.03,4.94-.1,9.25-2.08,13.61-4.05,5.03-2.27,7.59-6.72,9.51-11.41,1.09-2.66,1.02-5.82,1.31-8.78,.4-4.03,.62-8.06,1.68-12.01,.58-2.18,.88-4.5,.84-6.75-.1-5.37-.48-10.73-.76-16.09,0-.12-.16-.23-.59-.8Zm-.65-11.36c1.95-9.93-.82-16.92-8.29-22.29-4.2-3.02-8.52-5.53-13.39-7.39-9.65-3.69-19.42-3.9-29.24-1.56-3.96,.95-7.63,3.1-11.44,4.69-4.27,1.78-7.88,4.57-10.88,7.97-2.84,3.22-4.92,6.94-3.82,11.76,.68-.31,1.2-.43,1.56-.73,5.3-4.43,11.77-6.45,18.13-8.63,5.97-2.05,12.33-2.55,18.45-2.16,6.92,.45,13.84,1.68,20.48,4.38,5.42,2.2,10.41,4.78,14.51,8.93,1.25,1.27,2.21,2.82,3.92,5.03Zm-77.79,47.56c-4.1-2.33-6.49-4.68-8.57-8.05-2.62-4.22-4.19-8.48-5.3-13.17-1.82-7.7,.46-13.64,7.08-17.92,1.65-1.06,1.84-2.26,1.4-4.18-.73-3.19-.93-6.51-1.37-9.77-.08-.6-.28-1.18-.41-1.73-3.2,.25-5.03,2.15-6.59,4.34-4.53,6.35-7.53,13.25-7.16,21.24,.15,3.11,0,6.38,.96,9.26,2.88,8.73,7.22,16.63,14.86,22.32l5.1-2.34Zm-2.03-11.47c-.63-4.61-1.24-8.24-1.6-11.89-.35-3.54-.43-7.11-.67-11.29-3.46,4.39-4.67,6.67-3.95,9.39,1.2,4.59,1.98,9.46,6.22,13.78Z"/><path d="M1058.78,561.29c1.27,3.89,4.49,6.26,7.08,9.13,2.4,2.66,4.77,5.35,7.48,8.39-4.46,1.09-7.46,.67-10.31-2.63-4.2-4.87-8.59-9.52-12.2-14.92-3.01-4.5-6.91-8.41-10.36-12.62-5.46-6.64-10.76-13.42-16.35-19.95-4.17-4.87-8.16-9.87-12.76-14.4-7.85-7.72-15.3-15.86-22.77-23.94-4.12-4.46-8.03-9.12-11.86-13.82-.73-.89-.92-2.45-.87-3.68,.06-1.45,.39-3.02,1.08-4.28,1.38-2.5,1.01-4.68-.7-6.62,4.18-2.96,8.28-5.49,11.94-8.54,5.48-4.56,10.72-9.4,15.93-14.27,3.6-3.36,6.88-7.06,10.45-10.46,10.95-10.45,21.97-20.83,32.97-31.23,4.44-4.19,8.72-8.56,13.39-12.47,5.55-4.66,11.41-8.96,17.21-13.31,1.3-.97,2.89-1.65,4.44-2.17,2.86-.95,4.54,.08,4.43,3.16-.06,1.79,.58,2.89,1.65,3.81,4.71,4.03,7.88,9.23,11.27,14.3,2.92,4.35,6.15,8.5,9.3,12.7,2.96,3.93,6.4,7.46,9.05,11.7,2.51,4.01,5.93,7.45,8.91,11.18,2.47,3.1,4.79,6.32,7.34,9.36,3.24,3.86,6.72,7.53,9.96,11.39,3.19,3.8,6.19,7.76,9.33,11.6,2.29,2.8,4.7,5.51,7.01,8.29,2.83,3.41,5.54,6.94,8.45,10.28,3.88,4.45,7.9,8.77,11.87,13.15,4.07,4.5,8.1,9.05,12.23,13.49,4.69,5.04,9.62,9.85,14.17,15,3.82,4.32,7.18,9.04,10.85,13.49,2.33,2.82,.75,6.07,1.1,9.08,.14,1.24-1.44,2.83-2.51,4.03-4.82,5.37-9.73,10.65-14.61,15.97-.45,.49-.8,1.07-1.29,1.51-4.34,3.94-9.16,7.46-12.92,11.89-3.98,4.69-8.57,4.97-14.2,4.13,3.7-3.57,7.26-6.9,10.71-10.34,5.21-5.2,10.41-10.42,15.49-15.76,1.57-1.65,2.66-3.75,4.1-5.54,2.86-3.58,5.82-7.09,8.83-10.75-3.23-3.61-6.67-7.34-9.98-11.19-7.15-8.32-15.04-15.91-22.86-23.59-4.32-4.23-8.16-8.95-12.16-13.5-2.48-2.83-4.88-5.74-7.28-8.64-7.1-8.62-14.26-17.2-21.24-25.91-6.82-8.5-13.54-17.08-20.14-25.75-7.17-9.43-14.2-18.97-21.19-28.54-1.94-2.65-3.89-5.41-5.16-8.41-2.39-5.65-7.07-9.45-10.38-14.4-7.14,6.07-14.09,11.93-20.98,17.85-7.23,6.21-14.48,12.4-21.57,18.77-5.14,4.62-10.01,9.54-15.05,14.27-2.72,2.55-5.57,4.96-8.33,7.48-3.8,3.46-7.62,6.89-11.32,10.45-6.08,5.85-12.72,11-19.6,15.86-2.54,1.79-2.71,2.69-.62,5.04,3.38,3.81,7.29,7.24,10.12,11.4,6,8.81,13.93,15.95,20.32,24.39,3.06,4.04,6.68,7.64,10.06,11.43,6.67,7.49,13.32,15.01,20.04,22.46,5.85,6.48,11.76,12.91,17.68,19.33,3.12,3.38,6.32,6.69,9.46,10.06,4.11,4.41,8.19,8.85,12.62,13.63h-9.3c-4.97-5.5-10.14-11.27-15.38-16.96-.47-.51-1.42-.57-2.15-.84-1.01-1.64-2.01-3.27-3.02-4.91-.3,.22-.61,.44-.91,.66,.89,1.75,2.37,3.03,3.99,4.19Zm-77.48-90.95c-.72,2.28-.52,3.52,.63,4.82,3.94,4.41,7.66,9.03,11.68,13.36,1.3,1.4,2.45,3.35,5.77,4.06-7.25-7.12-10.78-15.79-18.08-22.24Z"/><path d="M321.76,497.89c-.46,6.66-1.06,12.59-1.23,18.53-.25,8.62-.86,17.19-2.31,25.7-1.33,7.79-2.75,15.57-3.95,23.38-.67,4.39-.99,8.84-1.49,13.56h-6.65c0-2.81-.36-5.62,.06-8.31,1.6-10.25,3.85-20.41,5.08-30.7,1.13-9.46,2.73-18.89,2.72-28.48,0-4.55,.66-9.1,.85-13.66,.12-2.96,1.72-4.62,4.34-5.26,3.19-.79,6.43-1.53,9.69-1.8,11.82-.99,23.59-2.82,35.5-2.48,.29,0,.59-.21,1.44-.54-.16-2.35-.04-4.95-.59-7.4-.96-4.34-1.4-8.69-1.41-13.1,0-3.88,1.61-5.98,5.5-6.96,11.64-2.92,23.26-5.91,34.95-8.61,8.51-1.96,17.11-3.53,25.69-5.19,1.45-.28,2.99-.17,4.48-.2,4.58-.08,6.61,1.17,7.33,5.55,1.58,9.55,4.05,18.98,4.22,28.75,.06,3.44,.53,3.79,4.45,3.9,9.2,.26,18.41,.37,27.6,.83,7.18,.36,14.33,1.15,21.49,1.77,4.28,.37,8.56,.77,12.84,1.19,6.88,.67,9.91,4.45,9.89,11.44-.02,7.44-1.69,14.65-2.58,21.97-1.08,8.88-2.47,17.73-3.89,26.57-.96,6-2.24,11.95-3.32,17.93-.75,4.16-1.41,8.34-2.16,12.82h-6.47c1.34-8.24,2.75-16.09,3.88-23.99,1.51-10.54,2.74-21.12,4.22-31.66,.6-4.24,1.7-8.41,2.3-12.65,.71-4.97,2.02-9.93,1-14.95-5.22-2.62-10.97-2.68-16.49-3.06-7.05-.48-14.05-1.51-21.18-1.52-8.07-.01-16.14-1.14-24.21-1.72-1.97-.14-3.95-.02-5.84-.02,.79,6.99,1.42,13.75,2.41,20.45,.27,1.81,1.64,3.46,2.61,5.4-1.37,5.4-2.39,6.32-8.12,7.03-5.05,.63-10.11,1.19-15.14,1.89-1.6,.22-3.15,.81-4.41,1.15,.05,10.48,.66,20.57-.69,30.71-.99,7.45-.99,15.03-1.45,22.87h-5.46c.46-17.43,2.98-34.72,2.5-52.1-3.65-1.63-6.78,.31-9.93,.69-8.46,1.03-16.86,2.64-25.27,4.06-3.06,.52-6.07,1.45-9.15,1.69-3.58,.28-4.74-.85-5.37-4.29-.21-1.14-.17-2.32-.23-3.48-.22-4.22-.61-8.32-1.81-12.49-1.37-4.76-1.41-9.91-2-14.9-.18-1.52-.24-3.06-.37-4.79-15.1-.1-29.53,1.89-43.93,4.46Zm54.46,28.32c14.56-2.47,28.74-4.87,43.09-7.3,.08-2.09-1.46-4.26,.55-5.73,3.49-2.55,4.62-6.12,5.2-10.18,.6-4.23,3.69-5.34,7.18-2.75,1.59,1.18,2.98,2.62,4.46,3.94,1.49,1.34,2.96,2.68,4.89,4.42-2.03-19.21-3.7-37.61-7.14-55.99-21.91,4.31-43.53,8.56-65.24,12.84,0,.65-.1,1.14,.01,1.58,2.25,9.04,3.73,18.19,3.84,27.53,.03,2.43-.16,4.87,.03,7.29,.26,3.29,.65,6.58,1.26,9.82,.19,1,1.7,1.74,1.89,2.74,.21,1.07-.66,2.3-.64,3.46,.05,2.6,.37,5.19,.62,8.34Zm53.95-17.34c-1.58,2.66-3.19,5.37-5.08,8.55,5.17-.79,9.76-1.5,14.29-2.19-3.12-2.16-6.07-4.2-9.2-6.36Z"/><path d="M749.2,521.52c2.9,6.09,2,12.81,3.08,19.65,16.76-2.35,33.57-4.19,50.84-4.04,2.14-5.18,2.42-10.55,2.66-16.09-.61-.39-1.12-1-1.67-1.04-3.66-.23-7.35-.58-11.01-.43-5.11,.21-10.2,1.1-15.31,1.18-7.54,.1-14.99,1-22.4,2.15-2.25,.35-3.47-.06-4.55-2.51,4.49-4.28,10.68-2.82,16.1-4.64v-7.58c-2.24-.93-3.41-2.42-3.24-4.91,.19-2.75,.21-5.54,0-8.29-.16-2.13-.37-4.44-1.29-6.31-1.87-3.79-2.17-7.93-2.42-11.84-.31-4.67-.66-9.45-.16-14.18,.12-1.11,.14-2.45,.78-3.22,.9-1.1,.76-1.64,.18-2.86-.69-1.46,.19-2.75,1.95-3.2,3.52-.89,6.99-2.1,10.56-2.7,5.68-.95,11.41-1.6,17.13-2.22,6.53-.71,13.07-1.36,19.62-1.8,3.91-.26,7.85-.15,11.78-.06,2.92,.07,4.9,1.46,5.44,4.22,1.65,8.41,3.41,16.82,3.55,25.45,.03,1.81,.12,3.59-1.85,4.78-.64,.38-.92,1.69-.99,2.6-.45,5.76-.94,11.52-1.13,17.29-.24,7.44-3.12,10.82-10.43,11.48-6.38,.57-12.77,1-20.07,1.55,1.53,.5,2.3,.89,3.1,.99,2.26,.27,4.58,.21,6.79,.69,2.7,.58,7.24,6.31,7.28,9.12,.07,3.72-.13,7.45-.19,11.18-.12,7.88-.31,15.75-.32,23.63,0,4.98-1.39,6.66-5.68,8.54-4.84,2.12-9.71,2.12-14.75,1.71-3.3-.26-6.62-.26-9.94-.39-7.63-.31-15.26-.68-22.9-.92-2.55-.08-5.12,.22-7.68,.21-1.36,0-2.73-.28-3.64-.38-.54-4.79-1.01-8.97-1.48-13.15-.04-.33-.09-.66-.11-.99-.37-9.6-.8-19.2-1.09-28.8-.09-2.91,.09-2.91,3.43-3.85Zm16.93-38.97c2.54,0,4.71,.36,6.72-.07,4.33-.94,8.59-1.89,13.04-2.33,9.93-.97,19.8-2.49,29.68-3.92,3.02-.44,5.98-1.3,9.12-2-.35-1.51-.73-2.59-.83-3.7-.42-4.58-.78-9.17-1.13-13.76-.27-3.5-2.66-5.9-5.93-5.7-7.24,.44-14.49,.92-21.72,1.5-3.94,.31-7.87,.73-11.78,1.29-5.7,.81-11.37,1.77-17.05,2.73-.75,.13-1.44,.61-1.77,.76,.55,8.44,1.08,16.5,1.66,25.21Zm54.57-.27c-4.44,.38-8.44,.45-12.54,1.02-10.72,1.49-21.54,2.36-32.32,3.43-4.05,.4-4.13,.36-3.92,4.22,.26,5.05,.65,10.09,1.01,15.13,.08,1.09,.25,2.18,.38,3.22,15.25-1.67,30.19-3.31,45.4-4.98,.46-7.5,2.37-14.4,1.99-22.05Zm-24.28,80.79c.11-5.48,.22-10.8,.34-16.12,.01-.66,.09-1.33,.05-1.99-.1-1.67-1.04-2.29-2.65-2.05-1.3,.19-2.59,.45-3.9,.53-8.68,.51-17.37,.95-26.05,1.47-4.01,.24-8.02,.61-11.87,.91,.66,5.94,1.29,11.55,1.92,17.25h42.17Zm6.68-19.19v17.9c2.11,.72,3.4,.12,3.55-1.73,.44-5.54,.71-11.09,1.01-16.64,.01-.23-.33-.47-.5-.7-1.27,.37-2.53,.73-4.06,1.17Z"/><path d="M934.68,86.01c-6.68,3.08-13.2,2.4-19.52,.8-5.71-1.44-10.46-4.89-14.22-9.45-3.42-4.15-5.11-8.9-5.39-14.42-.36-6.98,.58-13.54,4.52-19.29,6.38-9.31,18.21-16.14,30.85-13.07,4.5,1.09,8.37,2.86,12.07,5.68,7.18-.87,10.52,4.11,13.82,9.91,6.48-.27,13.19-.38,19.87-.87,8.29-.6,16.56-1.58,24.84-2.26,2.47-.2,5-.17,7.46,.12,2.49,.3,3.58,1.97,2.61,4.25-2.58,6.08-3.94,12.45-5.03,18.89-1.58,9.36-2.69,18.7-.62,28.2,1.08,4.96,2.08,9.84,4.25,14.51,1.97,4.24-.61,10.32-4.5,12.9-5.42,3.6-11.41,4.88-17.77,4.99-9.69,.17-19.36,.05-29.03-.88-6.43-.62-12.93-.21-19.29,.97-2.33,.43-4.47,2.06-7.04,.64-2.01-2.03-1.09-4.54-.76-6.89,.88-6.15,2.21-12.24,2.77-18.41,.47-5.18,.1-10.43,.1-16.32Zm3.63,34.52c8.92-1.35,17.29-2.53,25.86-1.04,3.07,.53,6.3,.26,9.45,.27,.61,0,1.4-.22,1.81-.63,3.25-3.27,6.64-6.52,7.86-11.16,.57-2.19,.56-4.54,.79-6.63,2.72-1.9,4.93-1.73,7.32,.4,2.08,1.85,4.51,3.37,6.96,4.73,1.21,.67,2.59,2.42,4.38,.61-3.61-8.82-4.81-17.99-4.06-27.45,.67-8.52,2-16.91,4.83-25.02,.57-1.63,.82-3.37,1.33-5.55-8.21-.11-15.74,1.59-23.36,1.87-7.84,.28-15.69,.22-23.6,.31,0,2.04,.1,3.54-.02,5.02-.52,6.42-1.32,12.78-5.31,18.17-2.7,3.64-6.18,6.45-10.31,8.29-2.69,1.19-2.68,3.25-2.64,5.57,.19,10.7,.96,21.43-1.29,32.25Zm-12.26-85.72c-6.48,.04-11.95,2.19-16.78,6.77-6.16,5.85-8.44,12.93-7.52,20.97,1.53,13.44,12.44,19.3,24.01,18.57,5.49-.35,10.07-2.96,14.69-5.42,4.36-2.32,7.39-6.03,8.85-10.76,1.73-5.61,1.96-11.3,.59-17.1-.73-3.09-2.4-4.91-5.29-5.93-1.53-.54-3.22-1.09-4.39-2.13-4.07-3.64-8.88-4.84-14.16-4.97Zm57.14,84.76c7.69,.74,14.66-.2,21.4-4.38-6.06-.31-10.35-3.93-15.09-6.21-2.12,3.57-4.13,6.94-6.3,10.59Z"/><path d="M1037.81,225.34c1.42,1.28,3.12,2.04,1.41,4.66-.66,1.01,.22,3.54,1.08,4.96,4.51,7.49,9.52,14.64,16.2,20.42,1.74,1.51,3.59,2.91,5.24,4.52,.91,.89,2.16,2.14,2.12,3.18-.17,3.86,3.72,4.87,4.96,7.67,.13,.29,.84,.41,1.3,.45,3.47,.31,4.4,1.23,3.39,4.12-.74,2.12-1.98,4.11-3.27,5.98-2.41,3.48-5.98,5.73-9.47,7.91-6.84,4.27-14,7.89-21.63,10.69-10.06,3.69-20.2,7.16-30.26,10.85-9.97,3.65-13.06,.41-17.26-6.26-5-7.94-9.08-16.41-12.24-25.22-3.05-8.49-5.53-17.19-8.1-25.84-1.13-3.8-.5-4.86,3.39-6.02,6.59-1.96,13.3-3.55,19.86-5.61,11.02-3.45,21.8-7.49,32.18-12.62,3.44-1.7,7.3-2.56,11.11-3.85Zm17.52,37.26c-4.71-4.79-9.22-8.88-13.13-13.49-4.08-4.79-7.02-10.38-8.76-16.47-5.92,2.69-11.58,5.39-17.33,7.85-4.09,1.75-8.19,3.8-12.5,4.66-9.15,1.83-17.84,5.91-27.44,5.26,.4,7.02,11.46,36.14,15.71,41.68,.47,.02,.98,.15,1.46,.06,13.81-2.65,26.76-8.17,40.16-12.19,.87-.26,1.86-1.03,2.24-1.82,1.85-3.86,3.92-7.66,3.88-12.15-.03-2.9,2.07-4.72,4.87-4.44,3.43,.35,6.87,.66,10.85,1.05Zm-9.65,26.74l-.27-.65c-15.82,5.09-31.63,10.18-47.45,15.27,.55,1.94,1.85,2.58,3.49,2.15,2.85-.76,5.68-1.62,8.44-2.65,8.05-3,16.08-6.06,24.08-9.19,3.94-1.54,7.81-3.28,11.71-4.92Zm-.46-20.57c-.08,.15-.44,.67-.64,1.25-.3,.89-.48,1.82-.72,2.77,4.36,.48,10.56-1.21,14.13-4.02h-12.77Zm13.13,8.39c-6.68-.18-11.28,1.72-16.83,6.76,6.31-2.53,11.57-4.65,16.83-6.76Zm-64.51,19.67c.54,2.12,1.63,2.77,3.09,2.27,2.82-.96,5.57-2.12,8.35-3.19l-.16-.57c-3.68,.48-7.36,.97-11.28,1.49Z"/><path d="M708.95,572.98c-2.75,.32-6.43,.88-10.14,1.14-3.14,.22-6.34,.38-9.46,.07-4.22-.41-8.38-1.39-12.59-1.95-2.67-.36-5.38-.39-8.07-.57-.77-.05-1.54-.09-2.3-.21-2.27-.35-4.52-.9-6.8-1.08-4.9-.4-9.81-.57-14.71-.92-2.23-.16-3.12-1.18-2.87-3.07,.58-4.41,1.12-8.82,1.81-13.21,.84-5.34,1.98-10.64,2.71-16,.62-4.51,.76-9.09,1.27-13.62,.36-3.21,.78-6.43,1.52-9.57,.96-4.04,1.85-4.7,5.8-4.39,1.2,.1,1.31-.08,1.99-1,.84-1.13,2.59-1.98,4.06-2.19,5.91-.84,11.85-1.39,17.79-2.04,5.89-.64,11.77-1.39,17.67-1.87,3.64-.3,7.31-.21,10.97-.24,4.09-.03,8.21,.25,12.27-.1,2.08-.18,3.36,.37,3.84,2.11,.87,3.15,1.54,6.37,2.04,9.6,.58,3.7,.92,7.43,1.29,11.15,.29,2.88-.23,5.76-2.21,7.8-2.17,2.25-2.47,4.93-2.9,7.65-1.38,8.74-2.64,17.5-4.07,26.23-.23,1.39-1,2.75-1.76,3.98-1.39,2.23-3.23,3.73-7.15,2.3Zm-32.1-37.73c2.78-.38,5.8-.78,8.82-1.2,6.52-.91,13.01-2.01,19.55-2.67,3.59-.36,7.11-.63,10.55-1.89,3.71-1.35,3.79-1.33,3.48-5.53-.25-3.41-.25-6.84-.38-10.25-.08-1.94-.19-3.88-.28-5.61-.69-.31-.99-.56-1.28-.55-7.67,.35-15.33,.72-22.99,1.1-.16,0-.32,.11-.48,.13-5.19,.56-10.42,.88-15.56,1.73-4.45,.74-9.47-1.15-13.34,2.68-.29,.28-1.24-.05-1.87-.17-.91-.17-1.82-.4-3.09-.69,5.77,7.85,11.25,15.29,16.87,22.93Zm39.06,1.93c-4.01,.27-7.26,.52-10.52,.7-8.34,.45-16.61,1.56-24.88,2.65-4.74,.63-5.32,1.17-5.72,5.8-.53,6.17-1.45,12.3-2.21,18.52,12.44,2.82,25.1,2.71,38.11,2.06,2.77-9.45,2.98-19.43,5.21-29.73Zm-49.67,27.16c1.12-6.09,2.16-11.55,3.11-17.01,.25-1.45,.76-3.14,.27-4.36-.84-2.06-1.64-3.74,.06-5.77,.29-.34-.46-1.79-1-2.54-2.9-3.99-5.89-7.92-8.85-11.86-1.76-2.34-3.54-4.67-5.91-7.8-.99,17.01-2.74,33.02-6.2,49.32h18.53Z"/><path d="M190.14,435.63c-.96-4.74,1.33-8.7,3.01-12.8,.5-1.22,1.54-2.47,1.43-3.62-.21-2.31,.96-3.19,2.71-4.01,1.96-.92,4.24-1.25,5.67,.13,3.19,3.08,7.13,2.8,10.89,3.06,12.14,.83,24.32,1.18,36.44,2.18,11.61,.96,23.2,2.31,34.6,4.93,.79,.18,1.91,.36,2.22,.91,2.3,4.14,6.88,4.15,10.47,5.9,3.68,1.79,7.48,3.33,11.26,4.93,1.95,.83,2.77,2.61,2.82,4.33,.05,1.92-1.46,3.27-3.38,3.73-3.35,.79-6.71,1.63-10.1,2.14-5.53,.83-11.07,1.73-16.64,1.99-3.73,.18-7.51-.62-11.25-1.13-3.58-.48-7.12-1.47-10.71-1.67-11.46-.65-22.75-2.44-34.04-4.33-8.7-1.45-17.44-2.65-26.16-3.97-.32-.05-.63-.31-.94-.29-1.29,.08-2.58,.24-3.87,.33-.32,.02-.72,0-.96-.16-1.18-.83-2.31-1.72-3.46-2.59Zm90.55-4.96c-6.33-.7-13.12-1.53-19.93-2.18-6.9-.65-13.77-2-20.71-1.81q-.64,7.48,.9,10.45c12.07,1.27,24.22,2.55,36.38,3.83,1.08-3.32,2.22-6.79,3.36-10.3Zm-84.72,1.25h9.09c.55-2.48,1.12-5.12,1.8-8.19-2.66-.46-5.13-.89-7.98-1.38-1,3.28-1.88,6.16-2.92,9.57Zm37.19,3.45c.16-2.95,.33-5.92,.52-9.4l-7.17-.39c-.54,2.63-1.02,4.7-1.39,6.79-.34,1.91,.32,2.83,2.3,2.97,1.82,.13,3.66,.03,5.73,.03Zm-22.98-3.36c2.57,1.78,5.44,1.54,8.51,1.26,.71-2.86,1.85-5.42,.81-8.41-2.64,.02-5.21-.84-7.91,.15-.47,2.35-.92,4.6-1.41,7.01Zm73.92,10.1c5.16-.74,9.92-1.43,14.68-2.11v-.74c-4.38-1.95-8.77-3.9-13.67-6.08-.36,3.18-.67,5.95-1.01,8.93Z"/><path d="M869.13,563.75c-5.23-.13-11.97-.22-18.7-.51-3.29-.14-6.57-.53-9.83-1.01-4.45-.67-6.29-4.65-3.91-8.52,4.49-7.28,9.12-14.47,13.63-21.73,4.88-7.85,9.55-15.83,14.59-23.58,2.86-4.41,6.84-7.04,12.57-7.15,4.51-.08,8.99-.25,13.49,.14,2.57,.22,4.08,1.43,5.2,3.83,5.86,12.64,11.87,25.21,17.9,37.76,1.07,2.22,2.41,4.32,3.76,6.39,2.25,3.46,1.24,7.26-3.79,7.85-6.54,.78-12.8,2.46-19.03,4.55-3.22,1.08-6.78,1.3-10.21,1.53-4.71,.32-9.45,.28-15.68,.43Zm-27.28-6.72h45.79c-1.55-8.63-5.71-15.91-8.44-23.7-2.73-7.8-5.35-15.64-7.99-23.37-9.13,15.94-18.8,31.58-29.36,47.06Zm34.87-49.12c2.15,5.86,3.77,11.65,6.33,16.97,4.37,9.07,7.67,18.5,10.74,28.04,.63,1.96,1.65,2.19,3.33,1.73,3.01-.83,6.06-1.55,9.04-2.46,.97-.3,1.79-1.07,2.61-1.58-7.55-14.51-14.29-28.85-19.07-44.43-4.51,.6-8.54,1.15-12.98,1.74Z"/><path d="M1141.32,579.38c4.68-5.34,8.66-9.89,12.72-14.52-5.36-9.58-13.88-16.01-20.6-24.38-13.33,9-24.28,20.64-36.31,30.31,2.38,2.91,4.54,5.55,6.52,7.97-4.33,1.29-8.48-.39-10.56-4.78-1.08-2.28-.52-4.53,.85-6.43,1.03-1.43,2.56-2.5,3.78-3.81,6.46-6.89,13.4-13.28,20.5-19.49,4.12-3.6,8.36-7.08,12.68-10.44,3.11-2.43,5.34-1.91,8.09,.99,4.3,4.52,8.92,8.74,13.13,13.34,3.65,4,7,8.28,10.31,12.57,1.99,2.58,1.33,5.34-.54,7.71-2.36,2.99-4.89,5.84-7.43,8.69-1.35,1.51-2.92,2.54-5.19,2.33-2.3-.21-4.63-.05-7.96-.05Z"/><path d="M1120.89,445.51c-.58,1.02-.85,2.15-1.56,2.64-8.23,5.63-14.52,13.38-21.97,19.87-5.8,5.05-11,10.79-16.69,15.99-8.2,7.5-16.59,14.79-24.89,22.18-1.49,1.32-2.88,2.75-4.39,4.04-.87,.74-1.82,1.48-2.87,1.86-.61,.22-1.73-.04-2.17-.51-.46-.49-.58-1.5-.49-2.25,.07-.57,.63-1.13,1.05-1.62,2.58-3.01,5-6.18,7.82-8.95,8.34-8.19,16.91-16.13,25.24-24.32,6.79-6.67,13.18-13.74,20.1-20.26,4.3-4.05,9.18-7.5,13.95-11.01,1.54-1.13,3.63-1.83,5.39-.12,.65,.63,.97,1.59,1.48,2.48Z"/><path d="M1137.42,465.04c.5,1.11,.84,1.86,1.36,3.03-1.53,1.47-3.11,3.05-4.77,4.56-2.7,2.45-5.5,4.79-8.17,7.27-8.34,7.75-16.69,15.49-24.94,23.33-7.65,7.26-15.18,14.64-22.75,21.98-2.86,2.76-5.58,5.67-8.59,8.26-1.26,1.09-3.1,1.51-4.6,2.19-1.42-1.74-1.76-2.96-.47-4.36,6.9-7.49,13.48-15.26,21.06-22.14,2.43-2.21,4.47-5,6.75-7.48,5.47-5.94,11.45-11.29,17.4-16.7,3.64-3.32,6.88-7.07,10.45-10.47,2.87-2.74,5.93-5.29,8.97-7.85,2.41-2.03,5.23-2.4,8.3-1.61Z"/><path d="M1156.32,484.92c1.18,3.34-1.08,5.26-2.83,7.03-9.45,9.53-18.95,19.01-28.65,28.29-8.18,7.83-16.68,15.34-24.99,23.04-4.21,3.9-8.29,7.96-12.53,11.82-1.86,1.69-1.99,1.55-4.43-1.18,1.89-2.31,3.67-4.83,5.79-7.03,10.72-11.09,21.51-22.12,32.32-33.12,5.77-5.87,11.59-11.69,17.46-17.46,1.4-1.38,3.08-2.49,4.59-3.77,2.39-2.03,4.81-4.03,7.11-6.16,1.7-1.57,3.47-2.49,6.17-1.46Z"/><path d="M1011.77,468.86c1.19-1.52,2.12-3.04,3.36-4.24,6.05-5.84,12.08-11.72,18.33-17.35,6.86-6.19,13.96-12.11,20.93-18.18,1.87-1.63,3.6-3.43,5.46-5.09,8.38-7.48,16.74-14.98,26.39-21.04,1.05,.76,2.1,1.52,3.05,2.21,.6,1.9-.49,2.93-1.62,3.96-1.56,1.42-3.03,2.96-4.68,4.27-7.64,6.04-14.62,12.86-22.21,18.96-4.4,3.54-9.2,6.67-13.21,10.6-6.89,6.75-14.08,13.14-21.39,19.42-2.97,2.55-6.14,4.86-9.23,7.26-1.51,1.18-3,1.22-5.19-.78Z"/><path d="M1098.73,429.78c-1.07,1.6-1.73,3.12-2.85,4.17-5.14,4.85-10.06,10.03-15.71,14.21-7.21,5.33-13.34,11.79-20.05,17.63-6.8,5.93-13.22,12.3-19.76,18.53-2.35,2.24-2.29,2.31-5.89,1.33,.52-1.37,.77-2.88,1.59-3.98,1.76-2.38,3.66-4.7,5.78-6.76,5.65-5.48,11.28-10.99,17.21-16.17,9.07-7.92,18.38-15.56,27.57-23.35,1.87-1.58,3.57-3.38,5.52-4.87,1.65-1.26,3.46-2.66,6.59-.74Z"/><path d="M438.98,531.67c1.2-.26,2.12-.68,3-.61,13.37,1.11,26.78,1.11,40.18,1.29,5.59,.07,11.19,.57,16.77,1.06,1.59,.14,3.2,.78,4.68,1.46,1.3,.6,1.2,2.74-.16,3.14-1.52,.45-3.2,.59-4.8,.52-5.28-.24-10.54-.68-15.82-.95-1.79-.09-3.59,0-5.38,.18-8.76,.88-17.49-.4-26.23-.45-3.11-.02-6.22-.68-9.34-1.01-2.47-.27-2.62-2.12-2.91-4.62Z"/><path d="M401.79,566.26c-3.1,.95-4.92,1.85-6.8,2.03-4.93,.47-9.89,.61-14.84,.94-4.1,.27-8.19,.85-12.29,.85-6.07,0-12.14,.31-18.2,.27-3.65-.03-7.31,.03-10.94-.26-1.35-.11-3.49-.2-3.3-2.49,.16-1.85,1.74-2.3,3.3-2.38,7.92-.4,15.85-.82,23.78-1.09,10.24-.35,20.48-.61,30.72-.81,1.78-.04,3.59,.26,5.33,.66,.79,.18,1.44,.99,3.23,2.3Z"/><path d="M395.02,544.66c-.34,3.32-2.02,3.63-3.97,3.76-7.19,.47-14.38,.98-21.57,1.53-9.56,.74-19.11,1.55-28.67,2.31-1.16,.09-2.33,.03-3.49,.06-2.41,.06-3.73-1.08-3.92-3.57,.92-1.84,2.72-2.2,4.55-2.34,8.48-.63,16.97-1.22,25.46-1.78,2.82-.19,5.65-.23,8.47-.38,5.57-.28,11.14-.73,16.71-.82,2.05-.03,4.12,.75,6.44,1.22Z"/><path d="M496.03,553.76c-1.1,3.33-3.11,3.66-5.35,3.41-4.21-.47-8.39-1.27-12.61-1.5-11.65-.64-23.25-1.7-34.82-3.25-.81-.11-1.8-.05-2.38-.5-.82-.63-1.69-1.58-1.88-2.53-.28-1.39,.52-2.86,2.02-2.93,3.02-.14,6.45-2.8,8.99,1.18,.2,.31,1.15,.14,1.75,.2,5.07,.48,10.15,.93,15.22,1.46,4.42,.46,8.83,1,13.24,1.55,3.6,.45,7.21,.88,10.78,1.46,1.58,.26,3.1,.88,5.03,1.45Z"/><path d="M1160.66,540.14c-3.57-1.88-3.94-2.84-1.47-5.77,6.68-7.92,13.57-15.64,22.37-21.86,.85,.45,2.37,.76,2.6,1.48,.33,1.02,.11,2.73-.59,3.46-7.45,7.75-13.48,16.94-22.91,22.68Z"/><path d="M480.9,571.62c-.58,2.36-1.32,3.53-3.08,3.74-1.42,.17-2.83,.52-4.26,.6-8.57,.46-17.12,1.26-25.72,.76-1.62-.09-3.27-.11-4.86-.4-1.07-.2-2.34-.58-3.01-1.33-.64-.72-1.09-2.25-.74-3.01,.37-.8,1.89-1.69,2.74-1.55,11.56,1.87,23.17,.47,34.75,.83,1.28,.04,2.56,.22,4.17,.36Z"/><path d="M1168.04,555.81c-.52-2.22-.82-3.55-1.21-5.19,6.89-6.01,13.77-12.03,20.69-18.02,.61-.53,1.4-1.07,2.15-1.14,.91-.09,2.29,0,2.7,.58,.56,.78,.9,2.37,.47,3.09-1.18,1.94-2.62,3.84-4.32,5.33-4.68,4.1-9.5,8.05-14.39,11.9-1.6,1.26-3.58,2.05-6.08,3.45Z"/><path d="M503.53,511.06c-1.69,1.33-3.29,2.21-5.44,2.26-10.18,.24-20.35,.46-30.52-.35-.47-.04-1.01,.12-1.41-.06-1.42-.63-2.58-1.49-2.21-3.36,.37-1.88,1.76-2.48,3.31-2.18,6.16,1.2,12.39,.75,18.59,.94,4.59,.14,9.19,.06,13.78,.03,1.77-.01,3.36,.13,3.88,2.71Z"/><path d="M329.28,526.55c2.37-.73,4.63-1.84,6.98-2.09,7.37-.77,14.64-2.8,22.15-2.1,2.28,.21,4.58,.53,6.8,1.08,1.51,.37,2.04,1.76,1.51,3.19-.44,1.19-1.36,1.48-2.8,1.21-6.8-1.28-13.51,.04-20.23,.98-3.52,.49-7.08,.83-10.63,1-2.28,.11-2.29-.08-3.79-3.27Z"/><path d="M1172.6,326.1c.96,1.62,1.46,2.45,2.08,3.5-.79,1.03-1.44,2.21-2.38,3.07-6.07,5.56-12.63,10.5-19.55,14.93-1.39,.89-3.32,.94-4.87,1.34-1.31-2.45-.55-3.87,1-5.07,5.09-3.94,10.15-7.93,15.28-11.82,2.58-1.96,5.29-3.74,8.43-5.95Z"/><path d="M1170.07,509.95c1.01,.84,1.98,1.32,2.37,2.1,.26,.52-.05,1.7-.53,2.17-4.99,4.92-10.04,9.78-15.13,14.59-.82,.77-1.97,1.19-2.93,1.82-1.25,.82-2.69,1.16-3.43-.28-.5-.99-.46-2.55-.06-3.63,.36-.95,1.55-1.6,2.37-2.37,3.81-3.6,7.53-7.29,11.48-10.74,1.69-1.48,3.84-2.43,5.86-3.66Z"/><path class="h" d="M149.46,322.92c4.85-1.77,9.73-3.43,14.52-5.33,3.21-1.27,6.45-2.62,9.4-4.39,2.93-1.76,4.54-4.73,5.58-7.99,1.17-3.66-1.18-6.32-2.65-9.18-.27-.53-1.71-.68-2.59-.64-4.49,.22-8.82,1.14-13.28,3.51-.91-1.7-1.74-3.26-2.57-4.81-1.47-2.75-2.81-5.57-4.44-8.22-1.61-2.62-2.77-2.6-5.45-.15,2.61,4.48,5.24,9.01,8.2,14.09-7.68,2.3-15.02,4.5-22.01,6.59-3.51-3.66-6.65-6.94-10.14-10.57,4.73-2.37,9.41-4.74,14.11-7.04,2.06-1.01,4.28-1.73,6.25-2.88,1.48-.87,2.67-2.23,4.78-4.04-1.99-.55-3.1-1.26-3.93-1.02-2.64,.77-5.33,1.27-7.85,2.62-3.61,1.94-7.57,3.21-11.37,4.81-2.87,1.21-4.84,3.39-6.28,6.07-1.27,2.36-1.09,3.3,.8,5.2,2.43,2.45,4.88,4.89,7.5,7.51-3.33,1.89-6.43,3.66-9.58,5.45-4.54-7.03-8.98-13.91-13.58-21.03,2.69-1.21,5.18-2.33,7.63-3.43,2.71,3.01,3.95,3.06,5.17-.24,.65-1.78,1.63-2.75,3.13-3.54,4.54-2.38,9.04-4.83,13.62-7.14,.6-.3,1.61-.12,2.3,.17,2.97,1.24,3.31,1.2,4.14-1.25,.26-.77,.24-1.63,.32-2.17,6.27-3,12.35-5.9,18.53-8.85,.94,.42,1.98,.88,2.97,1.33,.32-.24,.77-.39,.82-.62,.89-4.17,4.86-5.24,7.71-7.22,2.91-2.03,6.45-3.17,10.09-4.88,.11,.69,.04,1.42,.35,1.92,1.27,2,3.05,2.3,4.39,.52,.95-1.26,1.49-2.89,1.94-4.43,.39-1.36,.89-2.37,2.28-3,4.74-2.15,9.43-4.41,14.99-7.03-.84,1.94-1.46,3.04-1.79,4.22-.3,1.04-.28,2.18-.4,3.31,1.75,.83,3.13,1.14,4.1-.58,1.04-1.85,2.36-3.66,2.88-5.66,.74-2.82,1.85-4.8,4.99-5.27,.89-.14,1.67-1.02,2.84-1.77,.79,.88,1.89,1.69,2.41,2.77,2.37,4.88,5.44,9.3,8.53,13.72,4.64,6.64,9.5,13.14,14.02,19.86,4.68,6.95,10.36,13.03,16.19,18.97,2.83,2.88,5.77,5.68,9.32,7.88,3.74,2.32,6.99,5.44,10.46,8.21-.92,2.21-2.9,2.39-4.53,2.87-8.95,2.64-18.01,4.92-26.88,7.8-8.93,2.9-17.87,5.93-25.75,11.32-.67,.46-1.48,.71-2.72,1.3-.82-1.54-1.73-3.04-2.46-4.64-1.79-3.95-4.11-7.51-7.68-10.04-2.13-1.51-4.21-2.44-7.3-1.69-8.77,2.13-17.7,3.61-26.56,5.33-3.89,.75-7.78,1.49-11.67,2.2-2.29,.42-3.94,2.54-6.67,2.02-2.24-.42-4.63-.09-6.95-.09l-.15-.69Zm27.14-59.9c-1.67,1.87-1.08,3.39,.12,4.94,3.72,4.81,7.36,9.67,11.1,14.46,5.46,6.99,11.62,13.31,18.12,19.35,3.49,3.24,6.63,6.85,10.01,10.22,2.52,2.52,5.01,5.11,8.31,6.64,1.89-2.81,1.98-2.88,.74-4.34-2.35-2.77-4.75-5.51-7.24-8.16-9.03-9.61-18.16-19.12-27.11-28.8-3.23-3.49-6.04-7.38-9.11-11.03-1.25-1.48-2.39-3.21-4.92-3.29Zm71.09,33.9c.42-.04,1.12,0,1.74-.2,2.39-.81,4.48-1.93,4.93-4.81,.38-2.42-.31-3.9-3.11-5.41-.98-.53-2.19-.6-3.24-1.04-1.16-.48-2.5-.89-3.33-1.75-3.99-4.13-7.88-8.37-11.71-12.65-1.2-1.34-2.11-2.95-3.17-4.42-.83-1.15-1.29-2.38-.46-3.68,1.35-2.12-.12-3.32-1.34-4.71-1.7-1.93-3.93-1.96-5.96-1.28-1.99,.66-2.87,2.59-3.14,4.68-.3,2.3,.64,3.7,2.83,4.6,1.1,.45,2.24,1.47,2.77,2.52,3.33,6.58,8.43,11.77,13.26,17.17,1.55,1.73,2.94,3.23,3.34,5.81,.53,3.43,3.01,5.03,6.6,5.18Zm-59.18-39.79c2.56,3.39,4.68,6.53,7.14,9.39,6.02,7,12.28,13.8,18.3,20.81,6.67,7.78,13.14,15.73,19.8,23.52,1.17,1.37,2.37,3.29,5.43,2.44-.51-1.53-.62-3.08-1.42-4.09-5.95-7.5-11.99-14.94-18.09-22.32-4.1-4.96-8.38-9.78-12.55-14.67-2.58-3.02-5.06-6.13-7.69-9.1-2.06-2.33-4.21-4.61-6.47-6.75-2.08-1.98-2.32-1.86-4.44,.78Zm-5.09,40.22c-1.75-4.83-14.28-20.44-18.65-23.3-2.11,1.04-2.28,2.61-1.04,4.41,.73,1.06,1.72,1.93,2.55,2.93,3.98,4.83,7.9,9.71,11.95,14.49,1.18,1.39,2.72,2.42,5.19,1.48Z"/><path class="h" d="M174.92,301.37c-.63,3.15-1.92,5.56-4.85,7.47-4.71,3.07-10.29,3.45-15.22,5.74-3.88,1.8-7.92,3.25-11.79,5.05-1.45,.68-2.8,1.77-3.91,2.95-1.36,1.43-.49,3.83,1.45,4.1,7.26,1.01,14.54,1.9,21.81,2.85,5.41,.7,10.85,1.22,16.21,2.16,10.66,1.86,21.28,3.96,31.99,5.98-1.06,4.53,4.22,2.96,5.1,5.87-.57,.32-1.12,.9-1.66,.89-4.8-.07-9.62-.02-14.4-.45-6.73-.61-13.42-1.58-20.13-2.43-4.08-.52-8.15-1.07-12.22-1.68-2.03-.31-2.07-.37-5.5,1.7,1.21,.83,2.11,1.85,3.2,2.13,4.14,1.07,8.3,2.37,12.52,2.73,7.9,.66,15.56,2.62,23.38,3.67,3.09,.41,6.45,.15,9.23,1.29,2.79,1.15,5.09,3.56,7.45,5.61,1.8,1.57,4.15,2.85,4.32,5.85-3.89,1.46-7.69,.24-11.44-.12-10.67-1.02-21.08-3.66-31.61-5.53-4.04-.72-8.05-1.65-12.11-2.14-.91-.11-3-.76-3.19,1.04-.1,.99,.85,2.65,1.77,3.08,2.36,1.09,4.93,1.83,7.49,2.41,8.32,1.9,16.68,3.66,25.02,5.51,2.69,.59,5.36,1.28,8.14,1.94-3.41,5.55-4.02,5.81-9.87,4.75-7.73-1.4-15.46-2.88-23.22-4.09-4.08-.64-8.23-.75-12.35-1.14-2.27-.22-4.54-.53-6.81-.8-1.6,3.33-1.41,4.06,1.62,4.87,2.7,.72,5.43,1.36,8.18,1.84,6.5,1.13,13.03,2.07,19.52,3.24,2.24,.41,4.39,1.29,6.53,1.94-.47,2.43-1.57,3.61-3.84,4.13-5.94,1.35-11.81,2.24-17.91,.97-4.5-.94-9.13-1.31-13.64-2.24-8.95-1.84-17.87-3.81-27.02-4.54-1.78-.14-3.53-.82-5.28-1.3-7.87-2.16-16.05-2.09-24.36-3.36-.4-2.2-.52-4.52-.8-6.85-.83-7.13-2.28-14.19-3.48-21.29-.11-.65-.18-1.31-.27-1.97-.77-5.29-.33-6.12,4.32-8.32,.74-.35,1.47-.73,2.14-1.19,9.36-6.54,18.69-13.1,28.06-19.63,.8-.56,1.72-1.01,2.66-1.3,5.51-1.7,11.01-3.41,16.56-4.98,7.6-2.14,15.26-4.1,22.85-6.27,1.77-.5,3.39-1.34,5.39-.13Z"/><path class="h" d="M91.8,390.41c-2.54,.5-4.17,.54-5.54,1.15-5.54,2.49-11,5.17-16.76,7.91-.46-1.12-1.14-2.11-1.25-3.17-.49-4.58-.76-9.19-1.23-13.77-.53-5.19-1.2-10.38-1.79-15.56-.09-.82-.13-1.66-.12-2.48,.05-5.47-.15-10.9-1.85-16.19-.38-1.19-.06-2.6-.06-4.1,7.96-1.71,15.92-3.42,24.29-5.22,.96,17.21,3.1,34.42,4.31,51.44Z"/><path class="h" d="M224.45,352.46c-1.86-1.05-3.43-1.93-5.64-3.18,2.11-1.39,3.69-2.77,5.52-3.58,12.49-5.53,25.15-10.69,37-17.6,4.11-2.4,8.67-4.03,13.26-6.12,.35,.91,.74,1.91,1.11,2.86-17.55,8.48-34.36,17.77-51.26,27.61Z"/><path class="h" d="M275.44,316.12c-17.91,8.39-35.81,16.77-53.86,25.23-1.92-.87-1.84-2.38-.53-3.82,.98-1.08,2.22-1.98,3.5-2.7,7.58-4.31,15.57-7.71,23.87-10.38,8.27-2.66,16.68-4.88,24.67-8.38,.68-.3,1.49-.29,2.24-.43l.12,.48Z"/><path class="h" d="M210.46,331.69c-12.38-2.44-23.69-4.67-34.99-6.9,.37-.22,.88-.74,1.46-.83,7.32-1.11,14.65-2.18,21.98-3.2,4.67-.65,6.16,.16,8.33,4.37,.96,1.86,1.85,3.76,3.22,6.56Z"/><path class="h" d="M135.69,262.09c2.94-4.15,7.65-6.9,13.44-7.28,3.92-.26,4.35-.88,8.01,4.02-5.89,2.81-11.69,5.58-17.15,8.18-1.25-1.44-2.51-2.87-4.29-4.92Z"/><path class="h" d="M185.13,241.91c2.2-3.96,4.06-8.33,9.81-8.06,2.65,.12,5.61-.64,7.47,3.14-.45,.22-.88,.45-1.33,.64-4.3,1.85-8.61,3.64-12.88,5.55-1.57,.7-2.49,.35-3.07-1.26Z"/><path class="h" d="M113.36,277.2c4.61-6.62,13.31-9.93,19.55-7.08-3.2,1.6-6.14,3.07-9.09,4.53-1.89,.94-3.88,1.75-5.65,2.87-1.8,1.14-3.3,1.14-4.81-.33Z"/><path class="h" d="M165.74,254.34c.9-5.34,3.8-7.64,7.23-8.94,2.16-.82,5.05-1.7,7.3,1.62-4.68,2.35-9.12,4.59-14.54,7.32Z"/><path class="h" d="M107.86,281.95c-2.66,1.71-4.9,3.15-7.35,4.73,1.54-3.53,2.13-3.91,7.35-4.73Z"/><path class="g" d="M402.06,88.71c1.51-3.47,2.76-6.33,4.06-9.33,.48,.07,.97,.29,1.34,.17,6.98-2.29,14.17-3.84,21.12-6.34,9.28-3.34,18.77-6.2,28.33-8.64,8.94-2.29,18.09-3.77,27.15-5.58,.44-.09,.95,.13,2.3,.36-27.89,11.47-54.95,22.83-84.31,29.36Z"/><path class="g" d="M399.16,63.72c16.66-1.11,32.88-2.19,49.48-3.3-19.24,6.19-38.19,12.29-57.97,18.66,2.33-6.25,6.55-10.51,8.5-15.36Z"/><path class="g" d="M469.3,51.09c-22.07,2.75-43.95,6.16-66.4,7.07,.64-1.27,1.4-2.23,1.62-3.3,1.05-5.06,4.89-5.62,8.98-5.58,3.17,.03,6.33,.46,9.49,.59,6.75,.29,13.51,.55,20.26,.72,8.68,.22,17.36,.33,26.04,.49Z"/><path class="h" d="M1201.66,362.65c3.61-3.38,7.27-6.7,10.79-10.17,1.14-1.12,1.93-2.62,2.77-4.01,.32-.53,.69-1.43,.46-1.83-2.22-3.85-2.03-9.1-6.9-11.76,2.43-1.57,4.63-3.29,7.07-4.52,4.01-2.02,8.61-.48,10.97,3.38,3.61,5.89,1.23,11-3.68,14.64-1.53,1.13-3.54,1.65-5.38,2.31-1.49,.53-2.28,1.51-1.97,2.99,.31,1.51,1.57,2.09,3.04,1.93,3.05-.33,5.54-2.03,7.92-3.7,8.71-6.09,9.3-14.18,4.7-21.51-4.35-6.93-14.98-9.96-21.86-1.7-.73,.88-1.67,1.58-2.34,2.2-4.31-2.23-8.68-4.49-12.92-6.68,4.79-3.53,10.11-6.71,14.47-10.89,3.75-3.6,7.84-6.5,12.55-9.54,4.09,5.89,8.12,11.78,12.24,17.61,3.13,4.44,7.1,8.81,9.71,13.57,.81,1.47,.82,3.1,2.45,3.72,1.34,.51,3.12-1.25,4.31,.21,.37,.45-.23,3.2-.22,3.78,.1,3.86,.09,4.84,0,8.7-.03,1.19,.58,3.18,.11,4.28-.86,1.99-2.92,3.14-4.87,4.08-3.47,1.67-7.68,2.68-10.85,4.79s-5.96,4.89-8.82,7.22c-6.41,5.22-12.58,10.76-18.19,16.85-3.9-1.51-6.27-4.99-9.11-7.79-2.89-2.83-5.35-6.1-8.28-9.51,3.65-3.1,7.8-5.92,11.94-8.76-.13,5.17,3.43,7.71,7.37,9.63,1.45,.71,3.63,.46,5.3,0,.97-.26,1.6-1.8,2.8-3.27-2.89-.72-5.36-.85-7.27-1.94-2.2-1.26-3.92-3.37-5.74-5.02-.99,.27-1.78,.48-2.57,.69Zm9.75-2.45c1.24,1.46,2.04,3.05,3.33,3.76,1.66,.92,3.69,1.46,5.6,1.59,2.44,.16,2.86-.55,3.58-4.14-3.72-1.71-7.07-5.62-12.5-1.21Zm12.17-17.43c-1.35-1.49-2.6-3.14-4.14-4.45-.54-.46-2.22-.5-2.61-.05-.62,.7-.98,2.08-.73,2.97,.26,.93,1.21,1.96,2.12,2.36,1.62,.71,3.44,1.1,5.36-.83Z"/><path class="g" d="M1200.68,344.23c2-.5,3.69-.91,5.39-1.33,.73,1.08,1.46,2.16,2.29,3.39-2.61,2.49-5.32,5.08-8.6,8.21,.38-2.16,.76-3.72,.89-5.31,.14-1.62,.03-3.26,.03-4.95Z"/><path class="h" d="M1077.08,138.07c1.16,2.98,1.73,5.47,3,7.54,3.88,6.3,9.14,11.21,16.09,13.98,6.1,2.43,12.12,5.07,18.63,6.47,6.07,1.3,11.97,.83,17.8-.69,4.45-1.16,8.8-2.83,13.07-4.57,5.12-2.1,9.18-5.68,12.58-10.01,.61-.78,1.14-1.63,2.02-2.91,.37,1.16,.84,1.93,.84,2.71,.02,4.93,0,9.86-.11,14.78-.12,4.59-.44,9.17-.57,13.75-.3,10.24-.54,20.49-.83,30.73-.01,.47-.21,.94-.42,1.82-3.03-.53-5.11,1.3-7.33,3.03-2.19,1.7-4.45,3.05-7.54,3.27-3.98,.29-7.86,1.68-11.82,2.35-3.91,.66-7.86,1.07-11.8,1.45-5.48,.54-10.9,.03-16.37-.61-4.65-.54-8.89-2.32-13.37-3.32-3.82-.86-6.43-3.17-8.15-6.65-3.66-7.39-4.91-15.27-4.97-23.42-.06-8.74-.77-17.43-1.7-26.13-.54-4.97-.01-10.07,.17-15.11,.09-2.63,.48-5.26,.78-8.47Z"/><path class="h" d="M1160.23,125.52c4.15,.52,7.88,1,11.61,1.44,2.38,.28,3.76,1.66,4.84,3.73,2.45,4.75,3.34,9.7,3.21,15.05-.15,6.1-1.5,12.04-1.52,18.18-.02,6.46-1.61,12.91-2.48,19.37-.16,1.14-.25,2.3-.3,3.46-.18,5.04-1.88,6.97-6.93,7.76-.78,.12-1.57,.18-2.52,.28v-7.42c.52-.17,.97-.42,1.44-.46,3.92-.34,5.91-2.64,6.35-6.36,.51-4.39,1.3-8.8,1.23-13.19-.1-6.36-.71-12.73-1.41-19.06-.45-4.1-2.04-7.69-6.86-8.38-2.18-.32-2.2-2.21-2.76-3.65-1.28-3.3-2.42-6.66-3.89-10.73Z"/><path class="h" d="M1084.06,137.07c.06-8.05,3.47-13.65,9.53-17.17,9.67-5.62,20.1-9.28,31.52-7.84,6.54,.82,12.87,2.71,17.89,7.49,1.67,1.59,3.64,2.87,5.28,4.49,1.25,1.24,2.2,2.79,3.42,4.39-2.68,.94-4.16-.74-5.63-1.85-2.03-1.54-4.11-2.45-6.66-2.92-2.53-.47-4.84-2.06-7.35-2.81-5.31-1.59-10.68-1.8-16.28-1.25-6.87,.67-13.22,2.7-19.42,5.38-3.84,1.66-7.19,4.07-9.26,7.94-.68,1.28-1.71,2.37-3.03,4.16Z"/><path class="h" d="M1168.23,164.3c.98,4.41-.41,8.69-1.05,13v-13.06l1.05,.06Z"/><path class="h" d="M1166.63,144.68c2.34,3.92,2.3,6.91,1.66,9.93l-1.14,.07c-.15-2.94-.31-5.87-.52-10Z"/><path class="h" d="M1167.88,162.39v-5.05h.46v5.04h-.46Z"/><path class="i" d="M167.04,490.42c.43,.57,.58,.68,.59,.8,.28,5.36,.66,10.73,.76,16.09,.04,2.25-.25,4.58-.84,6.75-1.06,3.95-1.28,7.98-1.68,12.01-.29,2.95-.22,6.11-1.31,8.78-1.91,4.69-4.47,9.14-9.51,11.41-4.36,1.97-8.67,3.95-13.61,4.05-1.94,.04-3.89,.6-5.81,1.03-4.69,1.03-9.22,.49-13.72-1.03-5.91-2-11.84-3.97-17.27-7.11-3.99-2.31-7.01-5.4-8.23-10.05-1.55-5.9-3.65-11.65-3.6-17.91,.02-2.59-.89-5.19-1.26-7.8-.55-3.84-1.03-7.69-1.49-11.54-.08-.64,.07-1.3,.16-2.55,10.9,11.62,24.33,15.77,39.36,15.04,14.88-.72,27.31-7.12,37.45-17.97Z"/><path class="i" d="M166.39,479.06c-1.71-2.22-2.67-3.77-3.92-5.03-4.1-4.15-9.08-6.73-14.51-8.93-6.64-2.7-13.57-3.93-20.48-4.38-6.11-.4-12.48,.11-18.45,2.16-6.36,2.18-12.82,4.2-18.13,8.63-.36,.3-.88,.42-1.56,.73-1.11-4.82,.98-8.54,3.82-11.76,3-3.4,6.6-6.2,10.88-7.97,3.81-1.59,7.48-3.74,11.44-4.69,9.82-2.34,19.59-2.14,29.24,1.56,4.87,1.86,9.19,4.37,13.39,7.39,7.46,5.37,10.24,12.36,8.29,22.29Z"/><path class="i" d="M88.61,526.61l-5.1,2.34c-7.64-5.68-11.98-13.59-14.86-22.32-.95-2.88-.81-6.16-.96-9.26-.37-7.99,2.63-14.89,7.16-21.24,1.56-2.18,3.39-4.09,6.59-4.34,.13,.55,.33,1.13,.41,1.73,.44,3.26,.64,6.58,1.37,9.77,.44,1.91,.25,3.11-1.4,4.18-6.63,4.28-8.9,10.22-7.08,17.92,1.11,4.69,2.68,8.95,5.3,13.17,2.09,3.37,4.47,5.72,8.57,8.05Z"/><path class="h" d="M86.58,515.14c-4.24-4.32-5.02-9.2-6.22-13.78-.71-2.73,.49-5,3.95-9.39,.24,4.18,.32,7.74,.67,11.29,.36,3.65,.97,7.28,1.6,11.89Z"/><path class="h" d="M981.29,470.34c7.3,6.45,10.83,15.13,18.08,22.24-3.33-.71-4.47-2.66-5.77-4.06-4.02-4.33-7.74-8.95-11.68-13.36-1.16-1.3-1.36-2.54-.63-4.82Z"/><path class="h" d="M1058.78,561.29c-1.63-1.17-3.1-2.45-3.99-4.19,.3-.22,.61-.44,.91-.66,1.01,1.64,2.01,3.27,3.02,4.91l.06-.05Z"/><path class="h" d="M376.22,526.21c-.25-3.15-.57-5.74-.62-8.34-.02-1.15,.85-2.39,.64-3.46-.19-1-1.7-1.74-1.89-2.74-.62-3.24-1.01-6.53-1.26-9.82-.19-2.42,0-4.86-.03-7.29-.11-9.34-1.59-18.49-3.84-27.53-.11-.44-.01-.93-.01-1.58,21.71-4.27,43.33-8.53,65.24-12.84,3.44,18.38,5.11,36.78,7.14,55.99-1.92-1.74-3.4-3.08-4.89-4.42-1.48-1.33-2.87-2.77-4.46-3.94-3.49-2.59-6.58-1.48-7.18,2.75-.58,4.07-1.71,7.64-5.2,10.18-2.01,1.46-.47,3.63-.55,5.73-14.34,2.43-28.52,4.83-43.09,7.3Zm14.91-34.44c-2.01,3.1-1.46,6.17-1.18,9.22,.41,4.5,5.63,7.51,9.99,3.98,1.53-1.24,3.25-2.29,4.64-3.67,5.93-5.89,11.79-11.87,17.64-17.84,1.62-1.66,1.56-3.06-.08-5.5-5.61,1.67-9.12,6.2-13.15,9.94-3.61,3.35-6.82,7.13-10.33,10.6-.8,.79-2.09,1.09-3.34,1.71-.89-3.33,.31-7.13-4.2-8.43Zm4.19-21.6c-1.16,1.28-2.51,2.15-2.9,3.34-.77,2.31-1.29,4.78-1.41,7.21-.18,3.89,3.29,5.99,6.77,4.25,1.17-.58,2.29-1.33,3.28-2.18,6.36-5.45,12.76-10.87,18.95-16.52,1.39-1.27,3.31-2.88,2.17-5.47-2.13-1.04-3.98-.88-6.04,.95-6.47,5.76-13.15,11.28-19.85,16.97-.65-2.73,1.6-5.31-.98-8.55Z"/><path class="h" d="M430.16,508.87c3.13,2.16,6.08,4.2,9.2,6.36-4.53,.69-9.11,1.4-14.29,2.19,1.89-3.18,3.5-5.9,5.08-8.55Z"/><path class="h" d="M766.14,482.55c-.57-8.71-1.1-16.77-1.66-25.21,.33-.14,1.02-.63,1.77-.76,5.68-.96,11.35-1.91,17.05-2.73,3.91-.56,7.84-.98,11.78-1.29,7.23-.57,14.48-1.06,21.72-1.5,3.27-.2,5.65,2.21,5.93,5.7,.36,4.59,.71,9.18,1.13,13.76,.1,1.11,.48,2.19,.83,3.7-3.13,.7-6.09,1.57-9.12,2-9.88,1.43-19.75,2.95-29.68,3.92-4.46,.43-8.72,1.39-13.04,2.33-2,.43-4.18,.07-6.72,.07Z"/><path class="h" d="M820.71,482.28c.37,7.65-1.53,14.55-1.99,22.05-15.21,1.67-30.15,3.31-45.4,4.98-.13-1.04-.3-2.13-.38-3.22-.36-5.04-.74-10.08-1.01-15.13-.2-3.87-.12-3.82,3.92-4.22,10.78-1.08,21.59-1.94,32.32-3.43,4.1-.57,8.1-.64,12.54-1.02Z"/><path class="h" d="M796.43,563.06h-42.17c-.63-5.7-1.26-11.31-1.92-17.25,3.85-.3,7.86-.67,11.87-.91,8.68-.52,17.37-.96,26.05-1.47,1.31-.08,2.6-.33,3.9-.53,1.61-.24,2.55,.38,2.65,2.05,.04,.66-.03,1.33-.05,1.99-.11,5.32-.22,10.63-.34,16.12Z"/><path class="h" d="M803.11,543.87c1.53-.44,2.79-.81,4.06-1.17,.17,.23,.51,.48,.5,.7-.3,5.55-.57,11.1-1.01,16.64-.15,1.86-1.44,2.45-3.55,1.73v-17.9Z"/><path class="h" d="M938.31,120.53c2.25-10.82,1.48-21.55,1.29-32.25-.04-2.32-.05-4.38,2.64-5.57,4.13-1.83,7.61-4.64,10.31-8.29,3.99-5.39,4.79-11.76,5.31-18.17,.12-1.48,.02-2.98,.02-5.02,7.92-.09,15.77-.03,23.6-.31,7.62-.28,15.15-1.98,23.36-1.87-.51,2.18-.76,3.92-1.33,5.55-2.83,8.11-4.16,16.49-4.83,25.02-.75,9.46,.46,18.63,4.06,27.45-1.8,1.81-3.17,.06-4.38-.61-2.45-1.36-4.88-2.87-6.96-4.73-2.39-2.13-4.6-2.3-7.32-.4-.23,2.1-.22,4.44-.79,6.63-1.22,4.64-4.6,7.89-7.86,11.16-.41,.41-1.2,.63-1.81,.63-3.16,0-6.38,.27-9.45-.27-8.57-1.49-16.94-.3-25.86,1.04Zm18.82-43.35c-.67,2.49-.21,3.74,2.14,3.72,2.81-.03,5.63,.06,8.44-.03,4.85-.16,9.69-.41,14.66-.63,1.12-2.28,.8-3.65-1.26-4.2-.78-.21-1.64-.19-2.46-.18-5.54,.13-11.08,.22-16.62,.46-1.72,.08-3.41,.58-4.9,.85Zm16.65,13.08c-2.31-1.01-4.3-1.44-6.77-.7-2.27,.68-4.83,.56-7.23-.61-1.96-.96-3.51-.35-3.95,1.07-.54,1.74,.24,3.28,2.13,3.79,4.53,1.24,9.07,1.39,13.63,.07,1.7-.49,2.52-1.45,2.18-3.62Z"/><path class="i" d="M926.05,34.81c5.28,.13,10.09,1.33,14.16,4.97,1.17,1.04,2.86,1.59,4.39,2.13,2.9,1.03,4.56,2.84,5.29,5.93,1.37,5.8,1.14,11.49-.59,17.1-1.46,4.73-4.49,8.44-8.85,10.76-4.62,2.46-9.2,5.07-14.69,5.42-11.57,.73-22.48-5.13-24.01-18.57-.92-8.04,1.37-15.12,7.52-20.97,4.83-4.59,10.3-6.73,16.78-6.77Zm-16.72,17.41c1.54,1.28,2.32,2.3,3.35,2.72,2.53,1.03,5.18,.15,7.78,.15,7.03,.02,14.04-.84,21.09-.29,2.17,.17,4.23-.56,5.5-3.52-.52-.3-1.06-.85-1.66-.92-10.64-1.22-21.29-.33-31.94,0-1.02,.03-2.02,.88-4.11,1.86Zm6.81,14.73c1.95-.13,3.6-.05,5.16-.38,4-.82,7.95-1.87,11.94-2.74,1.59-.35,2.43-1.28,3.26-2.77-3.62-1.98-7.02-1.3-10.38-.6-2.55,.54-5.04,1.37-7.58,1.97-2.59,.61-2.6,.55-2.4,4.51Z"/><path class="h" d="M983.19,119.57c2.17-3.65,4.18-7.02,6.3-10.59,4.74,2.28,9.03,5.9,15.09,6.21-6.74,4.19-13.71,5.12-21.4,4.38Z"/><path class="h" d="M1055.34,262.61c-3.98-.38-7.41-.7-10.85-1.05-2.8-.28-4.9,1.54-4.87,4.44,.04,4.49-2.03,8.29-3.88,12.15-.38,.8-1.37,1.56-2.24,1.82-13.4,4.02-26.34,9.54-40.16,12.19-.47,.09-.99-.04-1.46-.06-4.26-5.53-15.31-34.65-15.71-41.68,9.6,.66,18.29-3.42,27.44-5.26,4.31-.86,8.41-2.91,12.5-4.66,5.76-2.47,11.42-5.16,17.33-7.85,1.74,6.09,4.68,11.68,8.76,16.47,3.91,4.6,8.42,8.7,13.13,13.49Zm-60.06-4.58c2.24-.31,4.6-.43,6.84-1,4.76-1.2,9.46-2.64,14.19-3.99,2.37-.67,4.78-1.22,7.07-2.11,.68-.27,1.43-1.55,1.34-2.27-.08-.68-1.14-1.45-1.93-1.77-.64-.26-1.54,.02-2.31,.16-2.26,.42-4.55,.74-6.75,1.36-5.52,1.56-10.99,3.27-16.48,4.91-2.19,.65-2.81,2.09-1.97,4.7Zm29.94,2.35c-2.19,.17-3.76-.09-4.95,.46-2.34,1.09-4.47,2.07-7.11,.86-.43-.2-1.88,.76-2.11,1.44-.46,1.34,1.17,3.64,2.61,3.57,3.41-.16,6.95-.28,9.74-2.63,.75-.64,.97-1.9,1.82-3.7Z"/><path class="h" d="M1045.69,289.34c-3.9,1.65-7.77,3.38-11.71,4.92-8,3.13-16.03,6.19-24.08,9.19-2.76,1.03-5.6,1.89-8.44,2.65-1.63,.44-2.94-.21-3.49-2.15,15.82-5.09,31.63-10.18,47.45-15.27l.27,.65Z"/><path class="h" d="M1045.22,268.77h12.77c-3.58,2.81-9.78,4.5-14.13,4.02,.24-.95,.42-1.88,.72-2.77,.19-.58,.56-1.1,.64-1.25Z"/><path class="h" d="M1058.36,277.16c-5.26,2.11-10.53,4.23-16.83,6.76,5.55-5.04,10.16-6.94,16.83-6.76Z"/><path class="h" d="M993.84,296.83c3.92-.52,7.6-1,11.28-1.49l.16,.57c-2.78,1.07-5.53,2.23-8.35,3.19-1.46,.5-2.55-.15-3.09-2.27Z"/><path class="h" d="M676.85,535.25c-5.62-7.64-11.09-15.08-16.87-22.93,1.28,.29,2.18,.52,3.09,.69,.63,.12,1.58,.46,1.87,.17,3.87-3.83,8.89-1.94,13.34-2.68,5.14-.85,10.37-1.17,15.56-1.73,.16-.02,.32-.12,.48-.13,7.66-.38,15.33-.75,22.99-1.1,.29-.01,.58,.24,1.28,.55,.09,1.73,.21,3.67,.28,5.61,.13,3.42,.13,6.85,.38,10.25,.31,4.2,.23,4.17-3.48,5.53-3.45,1.26-6.96,1.52-10.55,1.89-6.54,.66-13.04,1.76-19.55,2.67-3.02,.42-6.04,.82-8.82,1.2Z"/><path class="h" d="M715.9,537.18c-2.23,10.3-2.45,20.27-5.21,29.73-13.01,.66-25.66,.77-38.11-2.06,.76-6.21,1.68-12.35,2.21-18.52,.4-4.63,.98-5.17,5.72-5.8,8.26-1.1,16.54-2.2,24.88-2.65,3.25-.18,6.5-.43,10.52-.7Z"/><path class="h" d="M666.24,564.34h-18.53c3.46-16.3,5.22-32.32,6.2-49.32,2.37,3.13,4.15,5.46,5.91,7.8,2.96,3.94,5.95,7.87,8.85,11.86,.54,.74,1.29,2.2,1,2.54-1.7,2.02-.9,3.71-.06,5.77,.5,1.22-.01,2.91-.27,4.36-.96,5.47-1.99,10.92-3.11,17.01Z"/><path class="h" d="M280.7,430.67c-1.15,3.51-2.28,6.98-3.36,10.3-12.15-1.28-24.3-2.56-36.38-3.83q-1.55-2.97-.9-10.45c6.94-.2,13.81,1.15,20.71,1.81,6.81,.64,13.59,1.48,19.93,2.18Z"/><path class="h" d="M195.98,431.92c1.04-3.41,1.92-6.29,2.92-9.57,2.84,.49,5.32,.92,7.98,1.38-.67,3.07-1.25,5.7-1.8,8.19h-9.09Z"/><path class="h" d="M233.17,435.38c-2.08,0-3.91,.1-5.73-.03-1.98-.14-2.64-1.07-2.3-2.97,.38-2.09,.85-4.16,1.39-6.79l7.17,.39c-.19,3.49-.36,6.46-.52,9.4Z"/><path class="h" d="M210.19,432.02c.48-2.41,.94-4.66,1.41-7.01,2.71-.98,5.27-.12,7.91-.15,1.04,2.99-.1,5.56-.81,8.41-3.07,.28-5.94,.53-8.51-1.26Z"/><path class="h" d="M284.11,442.12c.34-2.98,.65-5.76,1.01-8.93,4.91,2.18,9.29,4.13,13.68,6.08v.74c-4.76,.68-9.52,1.37-14.68,2.11Z"/><path class="i" d="M841.84,557.03c10.56-15.49,20.24-31.13,29.36-47.06,2.64,7.72,5.26,15.56,7.99,23.37,2.73,7.79,6.89,15.07,8.44,23.7h-45.79Z"/><path class="i" d="M876.72,507.91c4.44-.6,8.47-1.14,12.98-1.74,4.78,15.59,11.52,29.92,19.07,44.43-.82,.51-1.64,1.28-2.61,1.58-2.98,.92-6.03,1.63-9.04,2.46-1.68,.46-2.7,.23-3.33-1.73-3.07-9.53-6.37-18.97-10.74-28.04-2.57-5.33-4.18-11.11-6.33-16.97Z"/><path d="M176.6,263.02c2.53,.08,3.68,1.81,4.92,3.29,3.07,3.65,5.88,7.53,9.11,11.03,8.95,9.68,18.09,19.19,27.11,28.8,2.49,2.65,4.89,5.39,7.24,8.16,1.24,1.46,1.15,1.53-.74,4.34-3.3-1.53-5.79-4.13-8.31-6.64-3.38-3.37-6.52-6.98-10.01-10.22-6.49-6.04-12.66-12.36-18.12-19.35-3.74-4.79-7.38-9.65-11.1-14.46-1.2-1.55-1.79-3.07-.12-4.94Z"/><path d="M247.69,296.92c-3.59-.15-6.07-1.75-6.6-5.18-.39-2.57-1.79-4.07-3.34-5.81-4.83-5.4-9.93-10.59-13.26-17.17-.53-1.06-1.67-2.07-2.77-2.52-2.2-.9-3.13-2.29-2.83-4.6,.27-2.1,1.15-4.02,3.14-4.68,2.04-.67,4.27-.64,5.96,1.28,1.22,1.38,2.7,2.58,1.34,4.71-.83,1.3-.37,2.53,.46,3.68,1.06,1.47,1.97,3.08,3.17,4.42,3.83,4.28,7.72,8.52,11.71,12.65,.83,.86,2.17,1.27,3.33,1.75,1.05,.43,2.26,.51,3.24,1.04,2.8,1.51,3.5,2.99,3.11,5.41-.46,2.88-2.54,4-4.93,4.81-.61,.21-1.31,.16-1.74,.2Z"/><path d="M188.51,257.13c2.13-2.64,2.36-2.76,4.44-.78,2.26,2.14,4.41,4.42,6.47,6.75,2.63,2.97,5.11,6.08,7.69,9.1,4.18,4.9,8.45,9.72,12.55,14.67,6.11,7.38,12.14,14.81,18.09,22.32,.8,1.01,.91,2.56,1.42,4.09-3.06,.85-4.26-1.07-5.43-2.44-6.66-7.79-13.13-15.74-19.8-23.52-6.01-7.01-12.27-13.81-18.3-20.81-2.46-2.86-4.58-6-7.14-9.39Z"/><path d="M183.42,297.34c-2.47,.95-4.02-.09-5.19-1.48-4.05-4.77-7.97-9.66-11.95-14.49-.82-1-1.82-1.87-2.55-2.93-1.23-1.8-1.06-3.37,1.04-4.41,4.37,2.86,16.89,18.46,18.65,23.3Z"/><path d="M1201.66,362.65c.79-.21,1.59-.43,2.57-.69,1.82,1.64,3.53,3.76,5.74,5.02,1.91,1.09,4.38,1.22,7.27,1.94-1.2,1.47-1.83,3-2.8,3.27-1.67,.45-3.85,.71-5.3,0-3.93-1.92-7.49-4.47-7.37-9.63l-.1,.11Z"/><path d="M1211.41,360.2c5.42-4.41,8.78-.5,12.5,1.21-.72,3.6-1.14,4.3-3.58,4.14-1.91-.13-3.93-.67-5.6-1.59-1.28-.71-2.08-2.29-3.33-3.76Z"/><path d="M1223.58,342.77c-1.92,1.93-3.74,1.54-5.36,.83-.91-.4-1.86-1.43-2.12-2.36-.25-.89,.11-2.27,.73-2.97,.39-.44,2.06-.41,2.61,.05,1.54,1.31,2.79,2.96,4.14,4.45Z"/><path d="M391.12,491.77c4.51,1.31,3.31,5.11,4.2,8.43,1.25-.62,2.53-.92,3.34-1.71,3.51-3.47,6.72-7.25,10.33-10.6,4.03-3.74,7.54-8.27,13.15-9.94,1.64,2.44,1.7,3.85,.08,5.5-5.85,5.97-11.7,11.95-17.64,17.84-1.39,1.38-3.11,2.43-4.64,3.67-4.36,3.53-9.59,.53-9.99-3.98-.27-3.05-.83-6.13,1.18-9.22Z"/><path d="M395.31,470.18c2.57,3.24,.32,5.82,.98,8.55,6.7-5.69,13.38-11.21,19.85-16.97,2.06-1.83,3.91-2,6.04-.95,1.14,2.59-.78,4.19-2.17,5.47-6.19,5.65-12.59,11.06-18.95,16.52-.99,.85-2.12,1.6-3.28,2.18-3.48,1.74-6.95-.35-6.77-4.25,.11-2.43,.64-4.9,1.41-7.21,.4-1.19,1.74-2.05,2.9-3.34Z"/><path d="M957.12,77.18c1.49-.27,3.19-.78,4.9-.85,5.54-.24,11.08-.34,16.62-.46,.82-.02,1.68-.03,2.46,.18,2.06,.55,2.38,1.92,1.26,4.2-4.98,.22-9.82,.47-14.66,.63-2.81,.09-5.63,0-8.44,.03-2.35,.02-2.81-1.23-2.14-3.72Z"/><path d="M973.77,90.26c.33,2.17-.48,3.13-2.18,3.62-4.56,1.32-9.1,1.17-13.63-.07-1.89-.52-2.68-2.05-2.13-3.79,.44-1.41,1.99-2.02,3.95-1.07,2.4,1.17,4.96,1.29,7.23,.61,2.47-.74,4.45-.31,6.77,.7Z"/><path d="M912.66,54.93c-2.09-.88-1.76-4.1,.46-4.53,.11-.02,.22-.03,.33-.04,10.65-.32,21.3-1.21,31.94,0,.6,.07,1.14,.62,1.66,.92-1.26,2.95-3.33,3.68-5.5,3.52-7.05-.55-14.06,.31-21.09,.29-2.6,0-5.25,.88-7.78-.15h-.03Z"/><path d="M916.14,66.95c-.2-3.96-.19-3.9,2.4-4.51,2.54-.59,5.03-1.43,7.58-1.97,3.36-.71,6.76-1.39,10.38,.6-.83,1.48-1.67,2.42-3.26,2.77-3.99,.87-7.94,1.91-11.94,2.74-1.56,.32-3.21,.25-5.16,.38Z"/><path d="M995.28,258.03c-.85-2.62-.22-4.05,1.97-4.7,5.49-1.64,10.97-3.35,16.48-4.91,2.2-.62,4.49-.95,6.75-1.36,.77-.14,1.66-.42,2.31-.16,.79,.32,1.85,1.09,1.93,1.77,.09,.72-.66,2.01-1.34,2.27-2.28,.89-4.7,1.44-7.07,2.11-4.73,1.35-9.43,2.78-14.19,3.99-2.24,.57-4.6,.69-6.84,1Z"/><path d="M1021.76,260.49c1.79-.14,3.02,1.97,1.87,3.34-.07,.09-.15,.16-.23,.24-2.78,2.35-6.33,2.47-9.74,2.63-1.44,.07-3.07-2.23-2.61-3.57,.23-.68,1.69-1.64,2.11-1.44,2.63,1.22,4.77,.23,7.11-.86,.44-.2,.93-.3,1.49-.34Z"/></g><g><g><path class="i" d="M940.73,414.78c21.24-19.87,42.82-39.37,64.73-58.51,6.12-5.34,12.26-10.66,18.43-15.94,1.23-1.05,1.08-3.16,0-4.24-1.22-1.22-3.01-1.06-4.24,0-22.09,18.92-43.85,38.22-65.28,57.89-5.99,5.49-11.95,11.01-17.88,16.56-2.83,2.64,1.42,6.88,4.24,4.24h0Z"/><path class="i" d="M936.97,414.63c2.46,5.42,6.67,9.97,11.81,12.97,1.07,.63,2.78,.53,3.64-.47,18.74-21.96,40.57-41,62.9-59.21,6.24-5.09,12.53-10.12,18.82-15.16,1.02-.81,1.09-2.58,.47-3.64l-8.59-14.52c-1.96-3.32-7.15-.31-5.18,3.03l8.59,14.52,.47-3.64c-22.51,18.02-45.1,36.1-65.4,56.63-5.65,5.71-11.11,11.62-16.32,17.73l3.64-.47c-4.32-2.52-7.59-6.27-9.65-10.82-.67-1.48-2.81-1.83-4.1-1.08-1.52,.89-1.75,2.62-1.08,4.1h0Z"/><path class="i" d="M1023.15,340c9.01-5.92,18.3-11.4,27.84-16.41l-4.1-4.1c-5.6,10.75-11.2,21.5-16.8,32.24-.75,1.44-.37,3.26,1.08,4.1,1.35,.79,3.35,.37,4.1-1.08,5.6-10.75,11.2-21.5,16.8-32.24,1.4-2.68-1.41-5.52-4.1-4.1-9.54,5.01-18.83,10.49-27.84,16.41-1.35,.89-1.92,2.65-1.08,4.1,.79,1.34,2.74,1.97,4.1,1.08h0Z"/><path class="i" d="M1036.47,329.71l1.11,6.25c.22,1.23,1.67,2.26,2.89,2.2,.53-.02,1.04-.16,1.51-.41,.57-.3,1.28-1.13,1.38-1.79l1.49-10.1c.12-.83,.14-1.56-.3-2.31-.36-.62-1.08-1.22-1.79-1.38-.77-.17-1.63-.14-2.31,.3-.61,.39-1.27,1.04-1.38,1.79l-1.49,10.1h5.79l-1.11-6.25c-.12-.7-.79-1.45-1.38-1.79-.64-.38-1.59-.54-2.31-.3s-1.43,.68-1.79,1.38c-.4,.75-.45,1.48-.3,2.31h0Z"/><path class="i" d="M950.66,402.87c1.64,3.61,4.17,6.89,7.23,9.4,.63,.52,1.27,.88,2.12,.88,.74,0,1.61-.33,2.12-.88s.91-1.32,.88-2.12c-.03-.75-.27-1.63-.88-2.12-1.43-1.17-2.71-2.49-3.85-3.95l.47,.61c-1.15-1.5-2.13-3.12-2.92-4.85-.29-.64-1.14-1.2-1.79-1.38-.72-.2-1.67-.11-2.31,.3s-1.2,1.03-1.38,1.79c-.19,.83-.05,1.54,.3,2.31h0Z"/><path class="i" d="M958.69,392.94c1.33,4.44,4.15,8.21,7.95,10.85,.61,.42,1.62,.49,2.31,.3s1.45-.73,1.79-1.38c.81-1.53,.3-3.15-1.08-4.1-.23-.16-.46-.33-.69-.5l.61,.47c-1.13-.88-2.14-1.88-3.02-3.01l.47,.61c-.9-1.17-1.65-2.44-2.23-3.8l.3,.72c-.24-.57-.45-1.15-.62-1.74-.45-1.5-2.13-2.6-3.69-2.1s-2.58,2.08-2.1,3.69h0Z"/><path class="i" d="M966.12,387.22c.98,1.59,2.13,3.09,3.39,4.46s2.7,2.59,4.2,3.71c.58,.44,1.64,.49,2.31,.3s1.45-.73,1.79-1.38c.37-.7,.55-1.54,.3-2.31l-.3-.72c-.27-.45-.63-.81-1.08-1.08-.13-.1-.26-.19-.39-.29l.61,.47c-1.73-1.34-3.28-2.89-4.62-4.61l.47,.61c-.54-.7-1.05-1.43-1.52-2.19-.4-.65-1.05-1.17-1.79-1.38s-1.67-.11-2.31,.3-1.2,1.03-1.38,1.79-.13,1.62,.3,2.31h0Z"/></g><path class="g" d="M1145.81,50.51c-12.07,.51-23.74,5.55-32.41,13.96-4.41,4.27-8.62,9.72-10.11,15.78s.16,12.77,5.47,16.32,13.59,1.18,15.65-5.11c.55-1.68-.66-3.09-2.1-3.69-4.13-1.71-8.54,.59-11.5,3.45-2.7,2.6-4.83,6.02-6.46,9.38-3.33,6.88-4.9,14.64-4.32,22.28,.33,4.37,1.27,8.67,2.96,12.72,.62,1.5,1.99,2.56,3.69,2.1,1.41-.39,2.72-2.18,2.1-3.69-4.94-11.91-3.37-25.84,4.32-36.31,.98-1.33,2.15-2.63,3.56-3.53,1.51-.96,2.58-1.23,4.07-.61l-2.1-3.69c-.29,.9,.15-.22-.09,.26-.11,.22-.24,.44-.38,.64,.26-.36-.03,.02-.09,.08-.17,.18-.35,.35-.54,.51-.4,.33,.55-.31-.24,.14-.17,.1-.35,.2-.52,.3-.53,.27-.24,.12-.12,.07-.33,.13-.68,.21-1.03,.31-.12,.03-.77,.13-.27,.07-.2,.02-.41,.03-.62,.04s-.41,0-.62,0c-.93-.04,.48,.15-.42-.05-1.06-.23-1.39-.38-2.16-1-1.47-1.17-2.29-2.93-2.68-4.93-.36-1.86,.07-4.39,.83-6.43,1.66-4.48,5.07-8.45,8.52-11.68s7.65-5.99,12.08-8c4.89-2.22,10.24-3.45,15.53-3.67,1.62-.07,3-1.33,3-3,0-1.57-1.37-3.07-3-3h0Z"/><path class="g" d="M1130.34,103.42c-6.28,2.9-10.18,9.48-10.75,16.23-.14,1.7,0,3.41,.33,5.08,.34,1.76,1.39,3.32,1.7,5.05,.25,1.36-.46,2.8-.72,4.3-.4,2.29-.06,4.17,1.42,6,1.02,1.26,3.18,1.06,4.24,0,1.25-1.25,1.02-2.98,0-4.24,.12,.15,.13,.19,.15,.37,0,.01,.01-.96-.03-.54,.08-.78,.36-1.56,.54-2.32,.43-1.79,.64-3.58,.12-5.38-.44-1.54-1.23-2.93-1.57-4.51-.23-1.06-.29-2.1-.21-3.48,0,.02,.08-.95,.03-.52,.04-.33,.11-.66,.17-.98,.13-.65,.31-1.3,.52-1.93,.35-1.06,.82-2.05,1.55-3.19,1.33-2.09,3.13-3.65,5.54-4.76,1.47-.68,1.84-2.8,1.08-4.1-.88-1.51-2.63-1.76-4.1-1.08h0Z"/><path class="g" d="M1054.49,124.4c-8.75,10.66-8.79,26.55-.15,37.28,1.02,1.26,3.18,1.06,4.24,0,1.25-1.25,1.02-2.98,0-4.24-6.43-7.98-6.36-20.87,.15-28.79,1.03-1.25,1.23-3.02,0-4.24-1.06-1.06-3.21-1.26-4.24,0h0Z"/><path class="g" d="M1036.32,154.58c-.94,8.88,5.18,17.64,13.58,20.31,1.5,.48,3.34-.56,3.69-2.1,.37-1.64-.49-3.18-2.1-3.69-.24-.08-.47-.15-.7-.24-.08-.03-.71-.29-.33-.12s-.24-.12-.32-.15c-.22-.11-.44-.22-.66-.34-.36-.2-.71-.41-1.06-.63-.21-.13-.41-.28-.61-.42-.46-.32,.19,.18-.08-.05-.66-.56-1.3-1.13-1.89-1.77-.17-.18-.33-.37-.49-.56-.05-.06-.47-.6-.23-.28s-.16-.23-.21-.29c-.14-.2-.28-.41-.41-.62-.47-.73-.85-1.5-1.24-2.28-.16-.32,.17,.46-.03-.08-.09-.23-.17-.46-.25-.7-.13-.39-.25-.78-.36-1.18-.11-.44-.21-.88-.29-1.32-.06-.33-.06-.47-.02-.05-.02-.25-.05-.49-.07-.74-.06-.91-.04-1.81,.06-2.71,.17-1.57-1.5-3.07-3-3-1.77,.08-2.82,1.32-3,3h0Z"/><path class="g" d="M102.33,243.25c-15.44,8.26-27.06,23.09-31.88,39.88-1.38,4.8-2.17,9.79-2.4,14.78-.07,1.62,1.43,3,3,3,1.69,0,2.93-1.37,3-3,.71-15.87,8.35-31.21,20.3-41.84,3.34-2.97,7.03-5.5,11.01-7.64,3.41-1.82,.38-7-3.03-5.18h0Z"/><path class="g" d="M59.02,258.35c-4.31,8.37-6.44,17.75-6,27.17,.08,1.62,1.32,3,3,3,1.57,0,3.08-1.37,3-3-.39-8.36,1.34-16.69,5.18-24.14,.74-1.44,.37-3.26-1.08-4.1-1.34-.79-3.36-.37-4.1,1.08h0Z"/><path class="i" d="M228.42,148.57c-8.51-1.26-16.95,3.27-20.71,11.04-3.74,7.72-3.42,17.83,2.06,24.67s16.02,7.43,23.6,3.78,12.25-11.91,11.82-20.25c-.47-9.22-7.08-17.26-15.98-19.67-3.73-1.01-5.32,4.78-1.6,5.79,5.53,1.5,9.99,6,11.27,11.62s-.96,12.2-5.77,15.7-12.29,4.65-17.23,.74-5.52-11.5-3.86-17.05c.96-3.21,2.9-6.22,5.66-8.11s6.07-2.92,9.14-2.46c1.6,.24,3.22-.4,3.69-2.1,.39-1.41-.48-3.45-2.1-3.69h0Z"/><path class="i" d="M273.99,182.57c-7.42-2.82-16.19-1.51-22.39,3.44s-8.37,13.22-6.2,20.52c1.13,3.81,3.43,6.97,6.64,9.28,3.54,2.54,7.99,3.72,12.18,4.64,2.59,.56,5.21,.87,7.83,.34,2.14-.44,4.19-1.49,5.92-2.81,3.48-2.64,6.02-6.18,7.49-10.3,3.31-9.29-.57-19.64-8.6-25.1-1.34-.91-3.33-.25-4.1,1.08-.87,1.48-.27,3.19,1.08,4.1,5.03,3.42,7.75,9.89,6.56,15.73s-6.14,12.41-12.88,11.49c-3.39-.46-7.16-1.43-10.21-3-1.43-.74-2.72-1.61-3.8-2.81-.69-.75-1.49-2.05-1.91-3.05-1.99-4.81-.97-10.84,2.81-14.6,4.66-4.64,11.92-5.49,18-3.18,1.51,.58,3.29-.64,3.69-2.1,.46-1.69-.58-3.11-2.1-3.69h0Z"/><path class="i" d="M240.14,183.98c.21-.22,.43-.42,.67-.61l-.61,.47c.42-.31,.86-.56,1.34-.77l-.72,.3c.52-.21,1.06-.35,1.62-.43l-.8,.11c.61-.07,1.21-.07,1.81,0l-.8-.11c.51,.08,1.01,.21,1.49,.41l-.72-.3c.44,.19,.85,.42,1.23,.7l-.61-.47c.37,.29,.7,.62,1,.98l-.47-.61c.34,.44,.61,.91,.83,1.42l-.3-.72c.21,.52,.35,1.05,.44,1.6l-.11-.8c.08,.6,.08,1.19,.01,1.78l.11-.8c-.08,.55-.22,1.08-.44,1.59l.3-.72c-.14,.31-.3,.61-.49,.89-.87,1.31-.3,3.38,1.08,4.1,1.5,.79,3.18,.33,4.1-1.08,1.87-2.84,1.8-6.8,.08-9.69-.86-1.45-2.18-2.72-3.74-3.39-1.04-.45-1.94-.68-3.07-.83-.88-.11-1.73-.02-2.61,.12-1.83,.28-3.62,1.24-4.89,2.57-1.09,1.13-1.21,3.13,0,4.24s3.08,1.21,4.24,0h0Z"/><path class="i" d="M216.29,157.34c8.71-3.04,17.9-5.44,27.11-6.28,4.02-.37,8.28-.46,12.15,.87,2.81,.97,5.05,2.7,5.5,5.5,.26,1.6,2.25,2.49,3.69,2.1,1.71-.47,2.35-2.08,2.1-3.69-1.1-6.89-8.54-9.97-14.66-10.73-7.99-.99-16.4,.74-24.16,2.56-4.51,1.06-8.95,2.36-13.32,3.88-1.53,.53-2.55,2.05-2.1,3.69,.41,1.48,2.15,2.63,3.69,2.1h0Z"/><path class="i" d="M284.02,210.27c5.7-2.19,11.61-3.79,17.64-4.7,2.35-.36,5.19-.85,7.45,.14,.87,.38,1.3,.81,1.73,1.56,.14,.23,.3,.64,.33,.79-.04-.21,.01,.49,.01,.59,0-.43-.15,.41,0,.08-.66,1.48-.43,3.23,1.08,4.1,1.28,.75,3.44,.41,4.1-1.08,1.49-3.32,.71-6.92-1.86-9.5s-6.51-3.27-10.08-3.02c-7.48,.54-15.01,2.56-21.99,5.24-1.51,.58-2.56,2.02-2.1,3.69,.4,1.44,2.17,2.68,3.69,2.1h0Z"/><path class="g" d="M652.82,457.83c-15.07,1.46-31.25,3.71-42.92,14.3-5.04,4.57-9.09,10.61-10.68,17.28s-.76,14.62,3.95,20.12c5.13,5.99,15.11,6.5,19.87-.19,.7-.98,.49-2.86-.47-3.64-7.57-6.14-17.49-3.65-25.61-.02s-17.21,9.09-19.24,18.61c-.97,4.55-.22,9.47,2.99,12.98,2.59,2.83,6.7,4.49,10.53,4.08,2.14-.23,4.11-1,5.75-2.41,2.32-2.01,2.57-5.56-.24-7.28-1.75-1.07-4.22-1.25-6.22-1.19s-4.16,.45-6.09,1.19c-9.07,3.46-15.36,12.56-13.94,22.36,.23,1.6,2.27,2.49,3.69,2.1,1.72-.47,2.33-2.08,2.1-3.69-.34-2.35,.31-5.28,1.54-7.56,1.37-2.54,3.32-4.62,5.71-6.12s5.03-2.36,7.84-2.28c.79,.02,.92,.03,1.59,.16,.41,.08,.61,.14,.63,.14l.13,.07-.49-2.59c-.15,.05-.35,.34-.48,.45,.35-.27-.41,.22-.51,.28-.13,.07-.26,.14-.4,.2,.06-.03,.36-.14,.03-.04s-.66,.19-.99,.26c.48-.1-.35,.02-.53,.02-.35,0-.7,0-1.05-.04,.46,.05-.26-.06-.4-.09-.35-.08-.69-.18-1.03-.29-.15-.05-.29-.1-.43-.16,.3,.12-.02-.01-.13-.07-.49-.25-1.29-.74-1.52-.93-.17-.14-1.05-1.04-1.18-1.22-1.56-2.18-1.59-5.33-.76-8.02,2.03-6.68,8.83-10.29,14.74-13.09,3.32-1.57,7.01-2.98,10.62-3.45,3.2-.42,6.61-.15,9.12,1.89l-.47-3.64c.14-.19-.93,.92-.7,.74-.25,.19-.53,.35-.8,.5,.02,0-.91,.4-.44,.22-1.28,.49-1.93,.55-3.37,.44-1.73-.14-3.86-1.32-5.22-3.04-3.33-4.21-3.42-10.19-2.07-15.06,3.18-11.52,13.89-18.97,24.93-22.36,7.36-2.26,15.02-3.18,22.65-3.92,1.61-.16,3-1.27,3-3,0-1.5-1.38-3.16-3-3h0Z"/></g></g></g></svg>